<svg width="12" height="12" viewBox="0 0 12 12" fill="none" xmlns="http://www.w3.org/2000/svg">
<path d="M11.8372 5.99513C11.8372 4.91873 11.518 3.86649 10.9199 2.9715C10.3219 2.0765 9.47195 1.37894 8.47748 0.967014C7.48301 0.555092 6.38873 0.447315 5.33301 0.657311C4.27729 0.867306 3.30755 1.38564 2.54641 2.14678C1.78528 2.90791 1.26694 3.87765 1.05695 4.93337C0.846952 5.98909 0.95473 7.08337 1.36665 8.07784C1.77857 9.07231 2.47614 9.92229 3.37114 10.5203C4.26613 11.1183 5.31836 11.4375 6.39477 11.4375C7.83818 11.4375 9.22247 10.8641 10.2431 9.84348C11.2638 8.82283 11.8372 7.43854 11.8372 5.99513ZM6.54103 8.71632C6.45211 8.62543 6.40232 8.50333 6.40232 8.37618C6.40232 8.24902 6.45211 8.12692 6.54103 8.03603L8.09551 6.47134L3.2858 6.47134C3.1595 6.47134 3.03838 6.42117 2.94907 6.33186C2.85976 6.24255 2.80959 6.12143 2.80959 5.99513C2.80959 5.86883 2.85976 5.7477 2.94907 5.6584C3.03838 5.56909 3.1595 5.51892 3.2858 5.51892L8.04789 5.51892L6.54103 4.01206C6.45082 3.92184 6.40014 3.79949 6.40014 3.67191C6.40014 3.54433 6.45082 3.42197 6.54103 3.33176C6.63124 3.24154 6.7536 3.19086 6.88118 3.19086C7.00876 3.19086 7.13112 3.24154 7.22133 3.33176L9.51614 5.63824C9.72748 5.85065 9.72737 6.19393 9.5159 6.4062L7.21453 8.71632C7.17031 8.76055 7.11781 8.79563 7.06003 8.81957C7.00225 8.8435 6.94032 8.85582 6.87778 8.85582C6.81524 8.85582 6.75331 8.8435 6.69553 8.81957C6.63775 8.79563 6.58525 8.76055 6.54103 8.71632Z" fill="white"/>
</svg>
