<svg width="25" height="25" viewBox="0 0 25 25" fill="none" xmlns="http://www.w3.org/2000/svg">
<rect x="0.705078" y="0.350586" width="23.9465" height="23.9465" rx="4.35391" fill="#EFF9FF"/>
<path d="M19.7537 8.28118C19.7537 7.74505 19.5408 7.23088 19.1617 6.85178C18.7826 6.47269 18.2684 6.25971 17.7323 6.25971H17.2269V5.76856C17.2269 5.49661 17.0178 5.26319 16.7459 5.24961C16.6775 5.24632 16.6093 5.25693 16.5451 5.28081C16.481 5.30469 16.4224 5.34134 16.3729 5.38853C16.3234 5.43572 16.284 5.49248 16.257 5.55536C16.2301 5.61824 16.2162 5.68593 16.2162 5.75434V6.25971H9.14107V5.76856C9.14107 5.49661 8.93198 5.26319 8.66003 5.24961C8.5917 5.24632 8.52341 5.25693 8.4593 5.28081C8.3952 5.30469 8.33661 5.34134 8.28708 5.38853C8.23756 5.43572 8.19813 5.49248 8.17118 5.55536C8.14424 5.61824 8.13035 5.68593 8.13034 5.75434V6.25971H7.62498C7.08885 6.25971 6.57468 6.47269 6.19559 6.85178C5.81649 7.23088 5.60352 7.74505 5.60352 8.28118V8.6602C5.60352 8.69371 5.61683 8.72585 5.64052 8.74954C5.66421 8.77323 5.69635 8.78654 5.72986 8.78654H19.6274C19.6609 8.78654 19.693 8.77323 19.7167 8.74954C19.7404 8.72585 19.7537 8.69371 19.7537 8.6602V8.28118ZM5.60352 17.3778C5.60352 17.9139 5.81649 18.4281 6.19559 18.8072C6.57468 19.1863 7.08885 19.3992 7.62498 19.3992H17.7323C18.2684 19.3992 18.7826 19.1863 19.1617 18.8072C19.5408 18.4281 19.7537 17.9139 19.7537 17.3778V9.89203C19.7537 9.8669 19.7438 9.8428 19.726 9.82503C19.7082 9.80726 19.6841 9.79728 19.659 9.79728H5.69827C5.67314 9.79728 5.64904 9.80726 5.63127 9.82503C5.6135 9.8428 5.60352 9.8669 5.60352 9.89203V17.3778ZM16.4689 10.808C16.6188 10.808 16.7654 10.8525 16.89 10.9358C17.0147 11.0191 17.1118 11.1375 17.1692 11.276C17.2266 11.4145 17.2416 11.5669 17.2123 11.7139C17.1831 11.861 17.1109 11.9961 17.0049 12.1021C16.8989 12.2081 16.7638 12.2803 16.6168 12.3095C16.4697 12.3388 16.3173 12.3238 16.1788 12.2664C16.0403 12.209 15.9219 12.1119 15.8386 11.9872C15.7553 11.8626 15.7108 11.716 15.7108 11.5661C15.7108 11.365 15.7907 11.1722 15.9328 11.03C16.075 10.8879 16.2678 10.808 16.4689 10.808ZM16.4689 13.3348C16.6188 13.3348 16.7654 13.3793 16.89 13.4626C17.0147 13.5459 17.1118 13.6643 17.1692 13.8028C17.2266 13.9413 17.2416 14.0937 17.2123 14.2408C17.1831 14.3878 17.1109 14.5229 17.0049 14.6289C16.8989 14.7349 16.7638 14.8071 16.6168 14.8364C16.4697 14.8656 16.3173 14.8506 16.1788 14.7932C16.0403 14.7359 15.9219 14.6387 15.8386 14.514C15.7553 14.3894 15.7108 14.2428 15.7108 14.0929C15.7108 13.8918 15.7907 13.699 15.9328 13.5569C16.075 13.4147 16.2678 13.3348 16.4689 13.3348ZM13.942 10.808C14.092 10.808 14.2385 10.8525 14.3632 10.9358C14.4878 11.0191 14.585 11.1375 14.6424 11.276C14.6998 11.4145 14.7148 11.5669 14.6855 11.7139C14.6563 11.861 14.5841 11.9961 14.4781 12.1021C14.372 12.2081 14.237 12.2803 14.0899 12.3095C13.9429 12.3388 13.7905 12.3238 13.6519 12.2664C13.5134 12.209 13.395 12.1119 13.3117 11.9872C13.2285 11.8626 13.184 11.716 13.184 11.5661C13.184 11.365 13.2639 11.1722 13.406 11.03C13.5482 10.8879 13.741 10.808 13.942 10.808ZM13.942 13.3348C14.092 13.3348 14.2385 13.3793 14.3632 13.4626C14.4878 13.5459 14.585 13.6643 14.6424 13.8028C14.6998 13.9413 14.7148 14.0937 14.6855 14.2408C14.6563 14.3878 14.5841 14.5229 14.4781 14.6289C14.372 14.7349 14.237 14.8071 14.0899 14.8364C13.9429 14.8656 13.7905 14.8506 13.6519 14.7932C13.5134 14.7359 13.395 14.6387 13.3117 14.514C13.2285 14.3894 13.184 14.2428 13.184 14.0929C13.184 13.8918 13.2639 13.699 13.406 13.5569C13.5482 13.4147 13.741 13.3348 13.942 13.3348ZM13.942 15.8617C14.092 15.8617 14.2385 15.9061 14.3632 15.9894C14.4878 16.0727 14.585 16.1911 14.6424 16.3296C14.6998 16.4682 14.7148 16.6206 14.6855 16.7676C14.6563 16.9147 14.5841 17.0497 14.4781 17.1558C14.372 17.2618 14.237 17.334 14.0899 17.3632C13.9429 17.3925 13.7905 17.3775 13.6519 17.3201C13.5134 17.2627 13.395 17.1655 13.3117 17.0409C13.2285 16.9162 13.184 16.7697 13.184 16.6197C13.184 16.4187 13.2639 16.2259 13.406 16.0837C13.5482 15.9415 13.741 15.8617 13.942 15.8617ZM11.4152 13.3348C11.5651 13.3348 11.7117 13.3793 11.8364 13.4626C11.961 13.5459 12.0582 13.6643 12.1156 13.8028C12.1729 13.9413 12.1879 14.0937 12.1587 14.2408C12.1294 14.3878 12.0572 14.5229 11.9512 14.6289C11.8452 14.7349 11.7101 14.8071 11.5631 14.8364C11.4161 14.8656 11.2636 14.8506 11.1251 14.7932C10.9866 14.7359 10.8682 14.6387 10.7849 14.514C10.7016 14.3894 10.6572 14.2428 10.6572 14.0929C10.6572 13.8918 10.737 13.699 10.8792 13.5569C11.0214 13.4147 11.2142 13.3348 11.4152 13.3348ZM11.4152 15.8617C11.5651 15.8617 11.7117 15.9061 11.8364 15.9894C11.961 16.0727 12.0582 16.1911 12.1156 16.3296C12.1729 16.4682 12.1879 16.6206 12.1587 16.7676C12.1294 16.9147 12.0572 17.0497 11.9512 17.1558C11.8452 17.2618 11.7101 17.334 11.5631 17.3632C11.4161 17.3925 11.2636 17.3775 11.1251 17.3201C10.9866 17.2627 10.8682 17.1655 10.7849 17.0409C10.7016 16.9162 10.6572 16.7697 10.6572 16.6197C10.6572 16.4187 10.737 16.2259 10.8792 16.0837C11.0214 15.9415 11.2142 15.8617 11.4152 15.8617ZM8.88839 13.3348C9.03832 13.3348 9.18488 13.3793 9.30954 13.4626C9.4342 13.5459 9.53136 13.6643 9.58873 13.8028C9.64611 13.9413 9.66112 14.0937 9.63187 14.2408C9.60262 14.3878 9.53042 14.5229 9.42441 14.6289C9.31839 14.7349 9.18332 14.8071 9.03628 14.8364C8.88923 14.8656 8.73681 14.8506 8.5983 14.7932C8.45978 14.7359 8.34139 14.6387 8.2581 14.514C8.1748 14.3894 8.13034 14.2428 8.13034 14.0929C8.13034 13.8918 8.21021 13.699 8.35237 13.5569C8.49453 13.4147 8.68734 13.3348 8.88839 13.3348ZM8.88839 15.8617C9.03832 15.8617 9.18488 15.9061 9.30954 15.9894C9.4342 16.0727 9.53136 16.1911 9.58873 16.3296C9.64611 16.4682 9.66112 16.6206 9.63187 16.7676C9.60262 16.9147 9.53042 17.0497 9.42441 17.1558C9.31839 17.2618 9.18332 17.334 9.03628 17.3632C8.88923 17.3925 8.73681 17.3775 8.5983 17.3201C8.45978 17.2627 8.34139 17.1655 8.2581 17.0409C8.1748 16.9162 8.13034 16.7697 8.13034 16.6197C8.13034 16.4187 8.21021 16.2259 8.35237 16.0837C8.49453 15.9415 8.68734 15.8617 8.88839 15.8617Z" fill="#0069AB"/>
</svg>
