<svg width="25" height="25" viewBox="0 0 25 25" fill="none" xmlns="http://www.w3.org/2000/svg">
<g opacity="0.7">
<path d="M5.61381 5.57712C6.25735 6.08034 6.50111 6.0448 7.71603 5.96685L19.1697 5.30773C19.4134 5.30773 19.2106 5.07389 19.1287 5.03461L17.226 3.71575C16.864 3.44262 16.3764 3.13458 15.4449 3.20878L4.35729 3.98825C3.95102 4.0238 3.86976 4.21897 4.03227 4.37487L5.61381 5.57712ZM6.3009 8.14V19.6986C6.3009 20.319 6.62266 20.5529 7.3507 20.5136L19.9386 19.8152C20.6667 19.7759 20.7512 19.3506 20.7512 18.8443V7.36365C20.7512 6.85669 20.5477 6.58731 20.1012 6.62659L6.94833 7.36365C6.46081 7.40294 6.30155 7.63304 6.30155 8.13689L6.3009 8.14ZM18.7263 8.75672C18.8076 9.10779 18.7263 9.45512 18.3604 9.49752L17.7545 9.61475V18.1465C17.226 18.4196 16.7424 18.5755 16.3394 18.5755C15.6894 18.5755 15.5269 18.3803 15.0426 17.7992L11.0748 11.8235V17.6046L12.3306 17.8777C12.3306 17.8777 12.3306 18.5761 11.3185 18.5761L8.52532 18.732C8.44406 18.5761 8.52532 18.1864 8.81003 18.1116L9.53807 17.9164V10.2745L8.52597 10.1965C8.44472 9.84548 8.64818 9.34225 9.21306 9.30359L12.2091 9.10841L16.3394 15.1621V9.80619L15.2863 9.68896C15.2051 9.26368 15.5269 8.9519 15.9331 8.91573L18.7263 8.75672ZM3.42644 2.94002L14.9613 2.12501C16.3764 2.00778 16.7424 2.08573 17.6323 2.70618L21.3161 5.1905C21.9219 5.61578 22.1254 5.73301 22.1254 6.19757V19.8158C22.1254 20.6701 21.8003 21.1733 20.6693 21.2513L7.2688 22.0276C6.42245 22.0669 6.01618 21.9497 5.56896 21.4072L2.85701 18.0293C2.37273 17.4088 2.16992 16.9442 2.16992 16.4024V4.29817C2.16992 3.59977 2.49494 3.01859 3.42579 2.94065L3.42644 2.94002Z" fill="black"/>
</g>
</svg>
