<svg width="25" height="25" viewBox="0 0 25 25" fill="none" xmlns="http://www.w3.org/2000/svg">
<rect x="0.352051" y="0.350586" width="23.9465" height="23.9465" rx="4.35391" fill="#EFF9FF"/>
<path d="M18.4209 5.79395H6.22992C5.3918 5.79395 4.71367 6.45287 4.71367 7.25821L4.70605 18.6649C4.70605 19.3165 5.52894 19.6459 6.00896 19.1847L7.75379 17.5081H18.4209C19.259 17.5081 19.9448 16.8492 19.9448 16.0438V7.25821C19.9448 6.45287 19.259 5.79395 18.4209 5.79395ZM14.9432 12.6809L14.067 12.3905V13.3032C14.067 13.7059 13.7241 14.0353 13.305 14.0353H9.8219C9.40284 14.0353 9.05997 13.7059 9.05997 13.3032V9.99885C9.05997 9.59618 9.40284 9.26672 9.8219 9.26672H13.305C13.7241 9.26672 14.067 9.59618 14.067 9.99885V10.9116L14.9432 10.6212C15.1794 10.3869 15.5908 10.5553 15.5908 10.8774V12.4173C15.5908 12.7468 15.1794 12.9151 14.9432 12.6809Z" fill="#0069AB"/>
</svg>
