<svg width="141" height="60" viewBox="0 0 141 60" fill="none" xmlns="http://www.w3.org/2000/svg">
<path d="M6.18619 3.79409C6.18619 3.69485 6.14677 3.59968 6.0766 3.52951C6.00643 3.45934 5.91126 3.41992 5.81202 3.41992C5.71279 3.41992 5.61762 3.45934 5.54745 3.52951C5.47728 3.59968 5.43786 3.69485 5.43786 3.79409V4.16825H4.68953C4.29259 4.16825 3.91191 4.32593 3.63123 4.60661C3.35055 4.88729 3.19287 5.26797 3.19287 5.66491L3.19287 6.41324H15.1661V5.66491C15.1661 5.26797 15.0085 4.88729 14.7278 4.60661C14.4471 4.32593 14.0664 4.16825 13.6695 4.16825H12.9211V3.79409C12.9211 3.69485 12.8817 3.59968 12.8116 3.52951C12.7414 3.45934 12.6462 3.41992 12.547 3.41992C12.4477 3.41992 12.3526 3.45934 12.2824 3.52951C12.2122 3.59968 12.1728 3.69485 12.1728 3.79409V4.16825H6.18619V3.79409ZM10.2287 11.0873C10.6964 11.0873 11.1147 10.7251 11.1147 10.2043C11.1147 9.58166 10.7203 9.28383 10.2466 9.28383C9.8081 9.28383 9.37257 9.57343 9.37257 10.1893C9.37257 10.8007 9.77891 11.0873 10.2287 11.0873Z" fill="#00A4F4"/>
<path d="M15.1661 13.8961V7.16113H3.19287V13.8961C3.19287 14.293 3.35055 14.6737 3.63123 14.9544C3.91191 15.2351 4.29259 15.3928 4.68953 15.3928H13.6695C14.0664 15.3928 14.4471 15.2351 14.7278 14.9544C15.0085 14.6737 15.1661 14.293 15.1661 13.8961ZM10.1793 12.9906C9.34863 12.9906 8.94004 12.4166 8.90487 11.9377H9.41598C9.44815 12.2146 9.70558 12.5513 10.2025 12.5513C10.8341 12.5513 11.176 11.9168 11.179 10.932H11.1588C11.0443 11.2418 10.6821 11.5231 10.1239 11.5231C9.48632 11.5231 8.86969 11.0667 8.86969 10.1986C8.86969 9.34775 9.52149 8.84487 10.2144 8.84487C11.0915 8.84487 11.6759 9.39415 11.6759 10.8414C11.6759 12.1921 11.1207 12.9899 10.1793 12.9899V12.9906ZM8.0166 8.92345V12.9135H7.51073V9.46524H7.50175C7.28473 9.58198 6.84097 9.85437 6.56035 10.0467V9.52585C6.87568 9.30581 7.20377 9.10465 7.54291 8.92345H8.0166Z" fill="#00A4F4"/>
<path d="M22.8508 12.876V6.60634H24.8144C24.8724 6.60634 24.9798 6.60779 25.1366 6.61069C25.2962 6.6136 25.4486 6.62521 25.5937 6.64552C26.0843 6.70648 26.4964 6.88209 26.8302 7.17235C27.1669 7.46261 27.4209 7.83124 27.5922 8.27824C27.7634 8.72234 27.8491 9.20998 27.8491 9.74116C27.8491 10.2752 27.7634 10.7658 27.5922 11.2128C27.4209 11.6569 27.1669 12.0241 26.8302 12.3143C26.4964 12.6017 26.0843 12.7758 25.5937 12.8368C25.4486 12.8571 25.2962 12.8687 25.1366 12.8716C24.9798 12.8745 24.8724 12.876 24.8144 12.876H22.8508ZM23.7825 12.0095H24.8144C24.9131 12.0095 25.0306 12.0066 25.167 12.0008C25.3035 11.995 25.4239 11.9834 25.5284 11.966C25.8477 11.9051 26.106 11.7672 26.3034 11.5524C26.5037 11.3347 26.6503 11.0677 26.7432 10.7513C26.836 10.4349 26.8825 10.0982 26.8825 9.74116C26.8825 9.37253 26.8346 9.03147 26.7388 8.71799C26.643 8.4016 26.495 8.13747 26.2947 7.92558C26.0973 7.71078 25.8419 7.57436 25.5284 7.51631C25.4239 7.49599 25.302 7.48438 25.1627 7.48148C25.0263 7.47567 24.9102 7.47277 24.8144 7.47277H23.7825V12.0095ZM30.1908 13.0066C29.8425 13.0066 29.5508 12.9427 29.3157 12.815C29.0806 12.6844 28.9021 12.5132 28.7802 12.3013C28.6612 12.0865 28.6017 11.8514 28.6017 11.5959C28.6017 11.3579 28.6438 11.1489 28.7279 10.969C28.8121 10.789 28.9369 10.6366 29.1024 10.5118C29.2678 10.3841 29.471 10.281 29.7119 10.2027C29.9209 10.1417 30.1575 10.088 30.4216 10.0416C30.6857 9.99514 30.9629 9.9516 31.2532 9.91096C31.5464 9.87032 31.8366 9.82969 32.124 9.78905L31.7931 9.97192C31.7989 9.60328 31.7205 9.33044 31.558 9.15338C31.3983 8.97342 31.1226 8.88344 30.7307 8.88344C30.484 8.88344 30.2576 8.94149 30.0515 9.05759C29.8454 9.17079 29.7018 9.35946 29.6205 9.6236L28.7715 9.36237C28.8876 8.9589 29.1082 8.63817 29.4333 8.40015C29.7613 8.16214 30.1967 8.04313 30.7394 8.04313C31.1603 8.04313 31.526 8.1157 31.8366 8.26083C32.1501 8.40305 32.3794 8.62946 32.5245 8.94004C32.6 9.09388 32.6465 9.25642 32.6639 9.42768C32.6813 9.59893 32.69 9.78325 32.69 9.98062V12.876H31.8845V11.8006L32.0413 11.9399C31.8468 12.2998 31.5986 12.5683 31.2967 12.7454C30.9978 12.9195 30.6291 13.0066 30.1908 13.0066ZM30.3519 12.2621C30.6103 12.2621 30.8323 12.2171 31.0181 12.1271C31.2039 12.0342 31.3533 11.9167 31.4665 11.7744C31.5797 11.6322 31.6538 11.4842 31.6886 11.3303C31.7379 11.191 31.7655 11.0343 31.7713 10.8601C31.78 10.686 31.7844 10.5466 31.7844 10.4421L32.0804 10.551C31.7931 10.5945 31.5319 10.6337 31.2967 10.6685C31.0616 10.7034 30.8483 10.7382 30.6567 10.773C30.468 10.805 30.2997 10.8441 30.1517 10.8906C30.0268 10.9341 29.9151 10.9864 29.8164 11.0473C29.7206 11.1083 29.6437 11.1823 29.5857 11.2694C29.5305 11.3565 29.5029 11.4624 29.5029 11.5872C29.5029 11.7091 29.5334 11.8223 29.5944 11.9268C29.6553 12.0284 29.7482 12.1097 29.873 12.1706C29.9978 12.2316 30.1575 12.2621 30.3519 12.2621ZM36.5113 12.876C36.2152 12.934 35.925 12.9587 35.6405 12.95C35.3561 12.9413 35.1021 12.8861 34.8786 12.7845C34.6551 12.683 34.4867 12.5233 34.3735 12.3056C34.2719 12.1111 34.2168 11.9138 34.2081 11.7135C34.2023 11.5103 34.1994 11.281 34.1994 11.0256V6.86757H35.1137V10.982C35.1137 11.1707 35.1151 11.3347 35.118 11.474C35.1239 11.6133 35.1543 11.7309 35.2095 11.8267C35.314 12.0066 35.4794 12.1097 35.7058 12.1358C35.9351 12.159 36.2036 12.1489 36.5113 12.1053V12.876ZM33.2981 8.90521V8.17375H36.5113V8.90521H33.2981ZM39.3756 13.0066C38.9083 13.0066 38.4976 12.905 38.1435 12.7018C37.7923 12.4957 37.518 12.2098 37.3206 11.8441C37.1261 11.4755 37.0289 11.0488 37.0289 10.564C37.0289 10.0503 37.1247 9.60474 37.3162 9.2274C37.5107 8.85006 37.7807 8.55834 38.1261 8.35226C38.4715 8.14617 38.8735 8.04313 39.3321 8.04313C39.811 8.04313 40.2188 8.15488 40.5555 8.37838C40.8922 8.59898 41.1433 8.91391 41.3088 9.32318C41.4771 9.73245 41.5439 10.2186 41.5091 10.7817H40.5991V10.4508C40.5933 9.90516 40.4888 9.50169 40.2856 9.24046C40.0853 8.97922 39.7791 8.84861 39.3669 8.84861C38.9112 8.84861 38.5687 8.99228 38.3394 9.27964C38.1101 9.567 37.9954 9.98207 37.9954 10.5249C37.9954 11.0415 38.1101 11.4421 38.3394 11.7265C38.5687 12.0081 38.8996 12.1489 39.3321 12.1489C39.6166 12.1489 39.8618 12.085 40.0679 11.9573C40.2769 11.8267 40.4394 11.6409 40.5555 11.4L41.4481 11.683C41.2652 12.1039 40.988 12.4304 40.6165 12.6626C40.245 12.8919 39.8313 13.0066 39.3756 13.0066ZM37.6994 10.7817V10.0721H41.0562V10.7817H37.6994ZM46.2711 13.0066C45.8009 13.0066 45.3931 12.9006 45.0477 12.6888C44.7023 12.4769 44.4352 12.1852 44.2466 11.8136C44.0608 11.4392 43.9679 11.0081 43.9679 10.5205C43.9679 10.03 44.0637 9.59893 44.2553 9.2274C44.4469 8.85296 44.7153 8.5627 45.0608 8.35661C45.4062 8.14762 45.8096 8.04313 46.2711 8.04313C46.7414 8.04313 47.1492 8.14908 47.4946 8.36097C47.84 8.57286 48.107 8.86457 48.2957 9.2361C48.4844 9.60764 48.5787 10.0358 48.5787 10.5205C48.5787 11.011 48.4829 11.4435 48.2914 11.818C48.1027 12.1895 47.8357 12.4812 47.4902 12.6931C47.1448 12.9021 46.7385 13.0066 46.2711 13.0066ZM46.2711 12.1489C46.7211 12.1489 47.0563 11.9979 47.2769 11.6961C47.5004 11.3913 47.6122 10.9994 47.6122 10.5205C47.6122 10.03 47.499 9.63812 47.2725 9.34495C47.049 9.04889 46.7152 8.90085 46.2711 8.90085C45.9664 8.90085 45.7153 8.97051 45.5179 9.10984C45.3205 9.24626 45.174 9.43638 45.0782 9.6802C44.9824 9.92112 44.9345 10.2012 44.9345 10.5205C44.9345 11.014 45.0477 11.4087 45.2741 11.7048C45.5005 12.0008 45.8329 12.1489 46.2711 12.1489ZM49.9665 12.876V8.0083C49.9665 7.88929 49.9709 7.76303 49.9796 7.62951C49.9883 7.49309 50.013 7.35957 50.0536 7.22895C50.0972 7.09543 50.1683 6.97352 50.267 6.86322C50.386 6.7326 50.5166 6.63972 50.6588 6.58457C50.801 6.52942 50.9418 6.49749 51.0811 6.48878C51.2234 6.48008 51.354 6.47572 51.473 6.47572H52.0651V7.22459H51.5165C51.3017 7.22459 51.1406 7.27829 51.0332 7.38569C50.9287 7.49018 50.8765 7.63967 50.8765 7.83414V12.876H49.9665ZM49.1872 8.90521V8.17375H52.0651V8.90521H49.1872ZM54.0663 12.876L56.1039 6.60634H57.4144L59.4521 12.876H58.5073L56.6307 7.15493H56.8659L55.0111 12.876H54.0663ZM55.1243 11.461V10.6076H58.3984V11.461H55.1243ZM62.4406 13.0066C61.9907 13.0066 61.6134 12.8977 61.3086 12.6801C61.0038 12.4595 60.7731 12.1619 60.6163 11.7875C60.4596 11.4131 60.3812 10.9907 60.3812 10.5205C60.3812 10.0503 60.4581 9.62796 60.612 9.25352C60.7687 8.87908 60.998 8.58447 61.2999 8.36967C61.6047 8.15198 61.9791 8.04313 62.4232 8.04313C62.8644 8.04313 63.2447 8.15198 63.5639 8.36967C63.8861 8.58447 64.1343 8.87908 64.3085 9.25352C64.4826 9.62505 64.5697 10.0474 64.5697 10.5205C64.5697 10.9907 64.4826 11.4145 64.3085 11.7919C64.1372 12.1663 63.8919 12.4624 63.5727 12.6801C63.2563 12.8977 62.8789 13.0066 62.4406 13.0066ZM60.2288 14.9659V8.17375H61.0387V11.5567H61.1432V14.9659H60.2288ZM62.3144 12.1837C62.6046 12.1837 62.8441 12.1097 63.0328 11.9617C63.2243 11.8136 63.3666 11.6148 63.4594 11.3652C63.5552 11.1126 63.6031 10.8311 63.6031 10.5205C63.6031 10.2128 63.5552 9.93418 63.4594 9.68456C63.3666 9.43493 63.2229 9.2361 63.0284 9.08807C62.8339 8.94004 62.5858 8.86602 62.2839 8.86602C61.9994 8.86602 61.7643 8.93568 61.5786 9.07501C61.3957 9.21433 61.2593 9.40881 61.1693 9.65843C61.0822 9.90806 61.0387 10.1954 61.0387 10.5205C61.0387 10.8456 61.0822 11.133 61.1693 11.3826C61.2564 11.6322 61.3942 11.8281 61.5829 11.9704C61.7716 12.1126 62.0154 12.1837 62.3144 12.1837ZM67.7385 13.0066C67.2886 13.0066 66.9112 12.8977 66.6064 12.6801C66.3017 12.4595 66.0709 12.1619 65.9142 11.7875C65.7574 11.4131 65.6791 10.9907 65.6791 10.5205C65.6791 10.0503 65.756 9.62796 65.9098 9.25352C66.0666 8.87908 66.2959 8.58447 66.5977 8.36967C66.9025 8.15198 67.2769 8.04313 67.721 8.04313C68.1622 8.04313 68.5425 8.15198 68.8618 8.36967C69.184 8.58447 69.4321 8.87908 69.6063 9.25352C69.7805 9.62505 69.8675 10.0474 69.8675 10.5205C69.8675 10.9907 69.7805 11.4145 69.6063 11.7919C69.435 12.1663 69.1898 12.4624 68.8705 12.6801C68.5541 12.8977 68.1768 13.0066 67.7385 13.0066ZM65.5267 14.9659V8.17375H66.3365V11.5567H66.441V14.9659H65.5267ZM67.6122 12.1837C67.9025 12.1837 68.1419 12.1097 68.3306 11.9617C68.5222 11.8136 68.6644 11.6148 68.7573 11.3652C68.8531 11.1126 68.901 10.8311 68.901 10.5205C68.901 10.2128 68.8531 9.93418 68.7573 9.68456C68.6644 9.43493 68.5207 9.2361 68.3262 9.08807C68.1318 8.94004 67.8836 8.86602 67.5817 8.86602C67.2973 8.86602 67.0622 8.93568 66.8764 9.07501C66.6935 9.21433 66.5571 9.40881 66.4671 9.65843C66.38 9.90806 66.3365 10.1954 66.3365 10.5205C66.3365 10.8456 66.38 11.133 66.4671 11.3826C66.5542 11.6322 66.6921 11.8281 66.8807 11.9704C67.0694 12.1126 67.3132 12.1837 67.6122 12.1837ZM72.8708 13.0066C72.4006 13.0066 71.9928 12.9006 71.6474 12.6888C71.302 12.4769 71.0349 12.1852 70.8463 11.8136C70.6605 11.4392 70.5676 11.0081 70.5676 10.5205C70.5676 10.03 70.6634 9.59893 70.855 9.2274C71.0466 8.85296 71.315 8.5627 71.6605 8.35661C72.0059 8.14762 72.4093 8.04313 72.8708 8.04313C73.3411 8.04313 73.7489 8.14908 74.0943 8.36097C74.4397 8.57286 74.7067 8.86457 74.8954 9.2361C75.0841 9.60764 75.1784 10.0358 75.1784 10.5205C75.1784 11.011 75.0826 11.4435 74.8911 11.818C74.7024 12.1895 74.4354 12.4812 74.0899 12.6931C73.7445 12.9021 73.3382 13.0066 72.8708 13.0066ZM72.8708 12.1489C73.3207 12.1489 73.656 11.9979 73.8766 11.6961C74.1001 11.3913 74.2119 10.9994 74.2119 10.5205C74.2119 10.03 74.0986 9.63812 73.8722 9.34495C73.6487 9.04889 73.3149 8.90085 72.8708 8.90085C72.5661 8.90085 72.315 8.97051 72.1176 9.10984C71.9202 9.24626 71.7737 9.43638 71.6779 9.6802C71.5821 9.92112 71.5342 10.2012 71.5342 10.5205C71.5342 11.014 71.6474 11.4087 71.8738 11.7048C72.1002 12.0008 72.4326 12.1489 72.8708 12.1489ZM76.2223 7.40311V6.51926H77.1322V7.40311H76.2223ZM76.2223 12.876V8.17375H77.1322V12.876H76.2223ZM81.74 12.876V10.564C81.74 10.3812 81.724 10.194 81.6921 10.0024C81.6631 9.80792 81.605 9.62796 81.5179 9.46251C81.4337 9.29706 81.3133 9.16354 81.1565 9.06195C81.0027 8.96036 80.801 8.90956 80.5514 8.90956C80.3888 8.90956 80.235 8.93713 80.0898 8.99228C79.9447 9.04453 79.817 9.13016 79.7067 9.24917C79.5993 9.36817 79.5137 9.52491 79.4498 9.71939C79.3889 9.91386 79.3584 10.1504 79.3584 10.4291L78.7924 10.2157C78.7924 9.78905 78.8722 9.41316 79.0318 9.08807C79.1915 8.76008 79.4208 8.50465 79.7198 8.32178C80.0187 8.13892 80.3801 8.04748 80.8039 8.04748C81.129 8.04748 81.4018 8.09973 81.6224 8.20423C81.843 8.30872 82.0215 8.44659 82.1579 8.61785C82.2973 8.7862 82.4032 8.97051 82.4758 9.1708C82.5484 9.37107 82.5977 9.567 82.6238 9.75857C82.6499 9.95015 82.663 10.1185 82.663 10.2636V12.876H81.74ZM78.4354 12.876V8.17375H79.2495V9.53217H79.3584V12.876H78.4354ZM86.4878 12.876C86.1917 12.934 85.9015 12.9587 85.617 12.95C85.3325 12.9413 85.0786 12.8861 84.8551 12.7845C84.6316 12.683 84.4632 12.5233 84.35 12.3056C84.2484 12.1111 84.1933 11.9138 84.1846 11.7135C84.1788 11.5103 84.1759 11.281 84.1759 11.0256V6.86757H85.0902V10.982C85.0902 11.1707 85.0916 11.3347 85.0945 11.474C85.1003 11.6133 85.1308 11.7309 85.186 11.8267C85.2905 12.0066 85.4559 12.1097 85.6823 12.1358C85.9116 12.159 86.1801 12.1489 86.4878 12.1053V12.876ZM83.2746 8.90521V8.17375H86.4878V8.90521H83.2746ZM93.1131 12.876L93.1175 9.94579C93.1175 9.60619 93.0304 9.34205 92.8563 9.15338C92.6821 8.96181 92.4528 8.86602 92.1683 8.86602C91.9942 8.86602 91.8345 8.90666 91.6894 8.98793C91.5472 9.0663 91.4311 9.18531 91.3411 9.34495C91.254 9.50169 91.2105 9.69907 91.2105 9.93708L90.7707 9.71503C90.7649 9.38414 90.8346 9.09388 90.9797 8.84425C91.1278 8.59463 91.328 8.4016 91.5806 8.26518C91.8331 8.12586 92.1161 8.05619 92.4296 8.05619C92.9375 8.05619 93.3308 8.20858 93.6095 8.51335C93.8881 8.81813 94.0275 9.22304 94.0275 9.7281L94.0231 12.876H93.1131ZM87.4748 12.876V8.17375H88.2847V9.53217H88.3891V12.876H87.4748ZM90.2962 12.876L90.3005 9.96321C90.3005 9.6207 90.2134 9.35221 90.0393 9.15773C89.868 8.96326 89.6373 8.86602 89.347 8.86602C89.0596 8.86602 88.8274 8.96471 88.6504 9.16209C88.4762 9.35946 88.3891 9.6178 88.3891 9.93708L87.9538 9.65843C87.9538 9.35076 88.0278 9.07646 88.1758 8.83554C88.3238 8.59463 88.5241 8.40451 88.7766 8.26518C89.0292 8.12586 89.3151 8.05619 89.6344 8.05619C89.9682 8.05619 90.2526 8.12731 90.4877 8.26953C90.7228 8.40886 90.9014 8.60479 91.0233 8.85731C91.1481 9.10984 91.2105 9.403 91.2105 9.7368L91.2061 12.876H90.2962ZM97.1841 13.0066C96.7167 13.0066 96.306 12.905 95.9519 12.7018C95.6007 12.4957 95.3264 12.2098 95.129 11.8441C94.9345 11.4755 94.8373 11.0488 94.8373 10.564C94.8373 10.0503 94.9331 9.60474 95.1247 9.2274C95.3191 8.85006 95.5891 8.55834 95.9345 8.35226C96.2799 8.14617 96.6819 8.04313 97.1405 8.04313C97.6194 8.04313 98.0273 8.15488 98.364 8.37838C98.7007 8.59898 98.9517 8.91391 99.1172 9.32318C99.2855 9.73245 99.3523 10.2186 99.3175 10.7817H98.4075V10.4508C98.4017 9.90516 98.2972 9.50169 98.094 9.24046C97.8937 8.97922 97.5875 8.84861 97.1753 8.84861C96.7196 8.84861 96.3771 8.99228 96.1478 9.27964C95.9185 9.567 95.8039 9.98207 95.8039 10.5249C95.8039 11.0415 95.9185 11.4421 96.1478 11.7265C96.3771 12.0081 96.708 12.1489 97.1405 12.1489C97.425 12.1489 97.6702 12.085 97.8763 11.9573C98.0853 11.8267 98.2479 11.6409 98.364 11.4L99.2565 11.683C99.0737 12.1039 98.7965 12.4304 98.4249 12.6626C98.0534 12.8919 97.6398 13.0066 97.1841 13.0066ZM95.5078 10.7817V10.0721H98.8647V10.7817H95.5078ZM103.467 12.876V10.564C103.467 10.3812 103.451 10.194 103.419 10.0024C103.39 9.80792 103.332 9.62796 103.245 9.46251C103.161 9.29706 103.04 9.16354 102.884 9.06195C102.73 8.96036 102.528 8.90956 102.278 8.90956C102.116 8.90956 101.962 8.93713 101.817 8.99228C101.672 9.04453 101.544 9.13016 101.434 9.24917C101.326 9.36817 101.241 9.52491 101.177 9.71939C101.116 9.91386 101.085 10.1504 101.085 10.4291L100.519 10.2157C100.519 9.78905 100.599 9.41316 100.759 9.08807C100.919 8.76008 101.148 8.50465 101.447 8.32178C101.746 8.13892 102.107 8.04748 102.531 8.04748C102.856 8.04748 103.129 8.09973 103.349 8.20423C103.57 8.30872 103.749 8.44659 103.885 8.61785C104.024 8.7862 104.13 8.97051 104.203 9.1708C104.275 9.37107 104.325 9.567 104.351 9.75857C104.377 9.95015 104.39 10.1185 104.39 10.2636V12.876H103.467ZM100.162 12.876V8.17375H100.977V9.53217H101.085V12.876H100.162ZM108.215 12.876C107.919 12.934 107.629 12.9587 107.344 12.95C107.06 12.9413 106.806 12.8861 106.582 12.7845C106.359 12.683 106.19 12.5233 106.077 12.3056C105.975 12.1111 105.92 11.9138 105.912 11.7135C105.906 11.5103 105.903 11.281 105.903 11.0256V6.86757H106.817V10.982C106.817 11.1707 106.819 11.3347 106.822 11.474C106.827 11.6133 106.858 11.7309 106.913 11.8267C107.018 12.0066 107.183 12.1097 107.409 12.1358C107.639 12.159 107.907 12.1489 108.215 12.1053V12.876ZM105.002 8.90521V8.17375H108.215V8.90521H105.002Z" fill="#888888"/>
<rect x="0.743799" y="27.0954" width="139.325" height="32.1101" rx="6.25875" fill="white"/>
<rect x="0.743799" y="27.0954" width="139.325" height="32.1101" rx="6.25875" stroke="#E7E7E7" stroke-width="0.544239"/>
<path d="M13.1504 46.7507C12.7005 46.7507 12.2941 46.6738 11.9313 46.52C11.5713 46.3632 11.2738 46.1412 11.0387 45.8538C10.8065 45.5636 10.6556 45.2196 10.5859 44.822L11.5351 44.6783C11.6308 45.0614 11.8311 45.3604 12.1359 45.5752C12.4407 45.7871 12.7962 45.893 13.2026 45.893C13.4551 45.893 13.6873 45.8538 13.8992 45.7755C14.1111 45.6942 14.2809 45.5795 14.4086 45.4315C14.5393 45.2806 14.6046 45.1006 14.6046 44.8916C14.6046 44.7784 14.5842 44.6783 14.5436 44.5912C14.5059 44.5041 14.4522 44.4286 14.3825 44.3648C14.3158 44.298 14.233 44.2414 14.1343 44.195C14.0386 44.1456 13.9326 44.1036 13.8165 44.0687L12.2099 43.5941C12.0532 43.5477 11.8935 43.4882 11.731 43.4156C11.5684 43.3402 11.419 43.2429 11.2825 43.1239C11.149 43.002 11.0402 42.8525 10.956 42.6755C10.8718 42.4955 10.8297 42.2778 10.8297 42.0224C10.8297 41.6363 10.9284 41.3098 11.1258 41.0428C11.3261 40.7728 11.596 40.5696 11.9356 40.4332C12.2752 40.2939 12.6555 40.2242 13.0763 40.2242C13.5001 40.23 13.8789 40.3055 14.2127 40.4506C14.5494 40.5958 14.8281 40.8047 15.0487 41.0776C15.2722 41.3475 15.426 41.6755 15.5102 42.0616L14.5349 42.227C14.4914 41.9919 14.3985 41.7902 14.2563 41.6218C14.114 41.4506 13.9399 41.32 13.7338 41.23C13.5277 41.1371 13.3042 41.0892 13.0633 41.0863C12.8311 41.0805 12.6177 41.1153 12.4233 41.1908C12.2317 41.2663 12.0778 41.3722 11.9617 41.5086C11.8485 41.645 11.7919 41.8018 11.7919 41.9788C11.7919 42.153 11.8427 42.2938 11.9443 42.4012C12.0459 42.5086 12.1707 42.5942 12.3188 42.6581C12.4697 42.719 12.6192 42.7698 12.7672 42.8104L13.9254 43.137C14.0705 43.1776 14.2345 43.2328 14.4173 43.3024C14.6031 43.3692 14.7816 43.4635 14.9529 43.5854C15.127 43.7073 15.2707 43.8699 15.3839 44.0731C15.4971 44.2734 15.5537 44.5259 15.5537 44.8307C15.5537 45.147 15.4899 45.4257 15.3621 45.6666C15.2344 45.9046 15.0588 46.1049 14.8353 46.2675C14.6147 46.4271 14.3593 46.5476 14.069 46.6288C13.7788 46.7101 13.4725 46.7507 13.1504 46.7507ZM18.5671 46.7507C18.0998 46.7507 17.6891 46.6491 17.3349 46.446C16.9837 46.2399 16.7094 45.954 16.5121 45.5882C16.3176 45.2196 16.2203 44.7929 16.2203 44.3082C16.2203 43.7944 16.3161 43.3489 16.5077 42.9715C16.7022 42.5942 16.9721 42.3025 17.3175 42.0964C17.6629 41.8903 18.065 41.7873 18.5236 41.7873C19.0025 41.7873 19.4103 41.899 19.747 42.1225C20.0837 42.3431 20.3348 42.6581 20.5002 43.0673C20.6686 43.4766 20.7354 43.9628 20.7005 44.5259H19.7906V44.195C19.7847 43.6493 19.6803 43.2458 19.4771 42.9846C19.2768 42.7234 18.9706 42.5927 18.5584 42.5927C18.1027 42.5927 17.7602 42.7364 17.5309 43.0238C17.3016 43.3111 17.1869 43.7262 17.1869 44.269C17.1869 44.7857 17.3016 45.1862 17.5309 45.4707C17.7602 45.7522 18.0911 45.893 18.5236 45.893C18.808 45.893 19.0533 45.8292 19.2594 45.7014C19.4684 45.5708 19.6309 45.3851 19.747 45.1441L20.6396 45.4271C20.4567 45.848 20.1795 46.1746 19.808 46.4068C19.4364 46.6361 19.0228 46.7507 18.5671 46.7507ZM16.8908 44.5259V43.8162H20.2477V44.5259H16.8908ZM21.7644 46.6201V40.2199H22.6744V46.6201H21.7644ZM26.0674 46.7507C25.6001 46.7507 25.1894 46.6491 24.8352 46.446C24.484 46.2399 24.2097 45.954 24.0124 45.5882C23.8179 45.2196 23.7206 44.7929 23.7206 44.3082C23.7206 43.7944 23.8164 43.3489 24.008 42.9715C24.2025 42.5942 24.4724 42.3025 24.8178 42.0964C25.1632 41.8903 25.5653 41.7873 26.0239 41.7873C26.5028 41.7873 26.9106 41.899 27.2473 42.1225C27.584 42.3431 27.8351 42.6581 28.0005 43.0673C28.1689 43.4766 28.2357 43.9628 28.2008 44.5259H27.2909V44.195C27.285 43.6493 27.1806 43.2458 26.9774 42.9846C26.7771 42.7234 26.4709 42.5927 26.0587 42.5927C25.603 42.5927 25.2605 42.7364 25.0312 43.0238C24.8019 43.3111 24.6872 43.7262 24.6872 44.269C24.6872 44.7857 24.8019 45.1862 25.0312 45.4707C25.2605 45.7522 25.5914 45.893 26.0239 45.893C26.3083 45.893 26.5536 45.8292 26.7597 45.7014C26.9687 45.5708 27.1312 45.3851 27.2473 45.1441L28.1399 45.4271C27.957 45.848 27.6798 46.1746 27.3083 46.4068C26.9367 46.6361 26.5231 46.7507 26.0674 46.7507ZM24.3911 44.5259V43.8162H27.748V44.5259H24.3911ZM31.1892 46.7507C30.7073 46.7507 30.2981 46.6433 29.9614 46.4285C29.6247 46.2138 29.3663 45.9191 29.1864 45.5447C29.0093 45.1703 28.9193 44.745 28.9164 44.269C28.9193 43.7843 29.0122 43.3561 29.1951 42.9846C29.3779 42.6102 29.6392 42.317 29.9788 42.1051C30.3184 41.8932 30.7262 41.7873 31.2022 41.7873C31.716 41.7873 32.1543 41.915 32.5171 42.1704C32.8828 42.4258 33.1238 42.7756 33.2399 43.2197L32.3343 43.4809C32.2443 43.2168 32.0962 43.0122 31.8902 42.867C31.687 42.719 31.4533 42.645 31.1892 42.645C30.8902 42.645 30.6449 42.7161 30.4534 42.8583C30.2618 42.9977 30.1196 43.1892 30.0267 43.4331C29.9338 43.6769 29.8859 43.9555 29.883 44.269C29.8859 44.7537 29.9962 45.1456 30.2139 45.4446C30.4345 45.7435 30.7596 45.893 31.1892 45.893C31.4823 45.893 31.7189 45.8263 31.8989 45.6927C32.0817 45.5563 32.221 45.3618 32.3168 45.1093L33.2399 45.327C33.086 45.7856 32.832 46.1383 32.4779 46.385C32.1238 46.6288 31.6942 46.7507 31.1892 46.7507ZM36.8176 46.6201C36.5215 46.6782 36.2312 46.7028 35.9468 46.6941C35.6623 46.6854 35.4083 46.6303 35.1848 46.5287C34.9613 46.4271 34.793 46.2675 34.6798 46.0498C34.5782 45.8553 34.523 45.6579 34.5143 45.4576C34.5085 45.2544 34.5056 45.0251 34.5056 44.7697V40.6117H35.42V44.7262C35.42 44.9148 35.4214 45.0788 35.4243 45.2182C35.4301 45.3575 35.4606 45.475 35.5157 45.5708C35.6202 45.7508 35.7857 45.8538 36.0121 45.88C36.2414 45.9032 36.5099 45.893 36.8176 45.8495V46.6201ZM33.6044 42.6493V41.9179H36.8176V42.6493H33.6044ZM39.5522 46.6201V40.3505H41.5158C41.5739 40.3505 41.6813 40.3519 41.838 40.3548C41.9977 40.3577 42.1501 40.3693 42.2952 40.3897C42.7857 40.4506 43.1979 40.6262 43.5317 40.9165C43.8684 41.2067 44.1224 41.5754 44.2936 42.0224C44.4649 42.4665 44.5505 42.9541 44.5505 43.4853C44.5505 44.0194 44.4649 44.5099 44.2936 44.9569C44.1224 45.401 43.8684 45.7682 43.5317 46.0585C43.1979 46.3458 42.7857 46.52 42.2952 46.5809C42.1501 46.6013 41.9977 46.6129 41.838 46.6158C41.6813 46.6187 41.5739 46.6201 41.5158 46.6201H39.5522ZM40.484 45.7537H41.5158C41.6145 45.7537 41.7321 45.7508 41.8685 45.745C42.0049 45.7392 42.1254 45.7276 42.2299 45.7101C42.5492 45.6492 42.8075 45.5113 43.0049 45.2965C43.2052 45.0788 43.3517 44.8118 43.4446 44.4954C43.5375 44.179 43.584 43.8423 43.584 43.4853C43.584 43.1167 43.5361 42.7756 43.4403 42.4621C43.3445 42.1457 43.1965 41.8816 42.9962 41.6697C42.7988 41.4549 42.5434 41.3185 42.2299 41.2604C42.1254 41.2401 42.0035 41.2285 41.8642 41.2256C41.7277 41.2198 41.6116 41.2169 41.5158 41.2169H40.484V45.7537ZM46.8923 46.7507C46.544 46.7507 46.2523 46.6869 46.0172 46.5592C45.7821 46.4285 45.6036 46.2573 45.4816 46.0454C45.3626 45.8306 45.3031 45.5955 45.3031 45.3401C45.3031 45.1021 45.3452 44.8931 45.4294 44.7131C45.5136 44.5331 45.6384 44.3808 45.8038 44.2559C45.9693 44.1282 46.1725 44.0252 46.4134 43.9468C46.6224 43.8859 46.8589 43.8322 47.1231 43.7857C47.3872 43.7393 47.6644 43.6957 47.9547 43.6551C48.2478 43.6145 48.5381 43.5738 48.8255 43.5332L48.4946 43.7161C48.5004 43.3474 48.422 43.0746 48.2594 42.8975C48.0998 42.7176 47.8241 42.6276 47.4322 42.6276C47.1855 42.6276 46.9591 42.6856 46.753 42.8017C46.5469 42.9149 46.4032 43.1036 46.322 43.3677L45.4729 43.1065C45.589 42.703 45.8096 42.3823 46.1347 42.1443C46.4627 41.9063 46.8981 41.7873 47.4409 41.7873C47.8618 41.7873 48.2275 41.8598 48.5381 42.005C48.8516 42.1472 49.0809 42.3736 49.226 42.6842C49.3015 42.838 49.3479 43.0006 49.3653 43.1718C49.3828 43.3431 49.3915 43.5274 49.3915 43.7248V46.6201H48.586V45.5447L48.7427 45.684C48.5483 46.0439 48.3001 46.3124 47.9982 46.4895C47.6992 46.6637 47.3306 46.7507 46.8923 46.7507ZM47.0534 46.0062C47.3117 46.0062 47.5338 45.9612 47.7196 45.8712C47.9053 45.7784 48.0548 45.6608 48.168 45.5186C48.2812 45.3763 48.3552 45.2283 48.3901 45.0745C48.4394 44.9352 48.467 44.7784 48.4728 44.6043C48.4815 44.4301 48.4858 44.2908 48.4858 44.1863L48.7819 44.2951C48.4946 44.3387 48.2333 44.3779 47.9982 44.4127C47.7631 44.4475 47.5498 44.4823 47.3582 44.5172C47.1695 44.5491 47.0012 44.5883 46.8531 44.6347C46.7283 44.6783 46.6166 44.7305 46.5179 44.7915C46.4221 44.8524 46.3452 44.9264 46.2871 45.0135C46.232 45.1006 46.2044 45.2065 46.2044 45.3314C46.2044 45.4533 46.2349 45.5665 46.2958 45.671C46.3568 45.7726 46.4497 45.8538 46.5745 45.9148C46.6993 45.9757 46.8589 46.0062 47.0534 46.0062ZM53.2128 46.6201C52.9167 46.6782 52.6264 46.7028 52.342 46.6941C52.0575 46.6854 51.8036 46.6303 51.5801 46.5287C51.3566 46.4271 51.1882 46.2675 51.075 46.0498C50.9734 45.8553 50.9183 45.6579 50.9095 45.4576C50.9037 45.2544 50.9008 45.0251 50.9008 44.7697V40.6117H51.8152V44.7262C51.8152 44.9148 51.8166 45.0788 51.8195 45.2182C51.8253 45.3575 51.8558 45.475 51.9109 45.5708C52.0154 45.7508 52.1809 45.8538 52.4073 45.88C52.6366 45.9032 52.9051 45.893 53.2128 45.8495V46.6201ZM49.9996 42.6493V41.9179H53.2128V42.6493H49.9996ZM56.0771 46.7507C55.6098 46.7507 55.1991 46.6491 54.8449 46.446C54.4937 46.2399 54.2194 45.954 54.0221 45.5882C53.8276 45.2196 53.7303 44.7929 53.7303 44.3082C53.7303 43.7944 53.8261 43.3489 54.0177 42.9715C54.2122 42.5942 54.4821 42.3025 54.8275 42.0964C55.1729 41.8903 55.5749 41.7873 56.0336 41.7873C56.5125 41.7873 56.9203 41.899 57.257 42.1225C57.5937 42.3431 57.8448 42.6581 58.0102 43.0673C58.1786 43.4766 58.2453 43.9628 58.2105 44.5259H57.3006V44.195C57.2947 43.6493 57.1903 43.2458 56.9871 42.9846C56.7868 42.7234 56.4806 42.5927 56.0684 42.5927C55.6127 42.5927 55.2702 42.7364 55.0409 43.0238C54.8116 43.3111 54.6969 43.7262 54.6969 44.269C54.6969 44.7857 54.8116 45.1862 55.0409 45.4707C55.2702 45.7522 55.6011 45.893 56.0336 45.893C56.318 45.893 56.5633 45.8292 56.7694 45.7014C56.9784 45.5708 57.1409 45.3851 57.257 45.1441L58.1496 45.4271C57.9667 45.848 57.6895 46.1746 57.318 46.4068C56.9464 46.6361 56.5328 46.7507 56.0771 46.7507ZM54.4008 44.5259V43.8162H57.7577V44.5259H54.4008ZM62.9726 46.7507C62.5024 46.7507 62.0946 46.6448 61.7492 46.4329C61.4038 46.221 61.1367 45.9293 60.948 45.5578C60.7623 45.1833 60.6694 44.7523 60.6694 44.2646C60.6694 43.7741 60.7652 43.3431 60.9568 42.9715C61.1483 42.5971 61.4168 42.3068 61.7622 42.1008C62.1076 41.8918 62.5111 41.7873 62.9726 41.7873C63.4428 41.7873 63.8507 41.8932 64.1961 42.1051C64.5415 42.317 64.8085 42.6087 64.9972 42.9802C65.1859 43.3518 65.2802 43.7799 65.2802 44.2646C65.2802 44.7552 65.1844 45.1877 64.9928 45.5621C64.8042 45.9336 64.5371 46.2254 64.1917 46.4373C63.8463 46.6462 63.4399 46.7507 62.9726 46.7507ZM62.9726 45.893C63.4225 45.893 63.7578 45.7421 63.9784 45.4402C64.2019 45.1354 64.3136 44.7436 64.3136 44.2646C64.3136 43.7741 64.2004 43.3823 63.974 43.0891C63.7505 42.793 63.4167 42.645 62.9726 42.645C62.6678 42.645 62.4168 42.7147 62.2194 42.854C62.022 42.9904 61.8754 43.1805 61.7796 43.4243C61.6839 43.6653 61.636 43.9454 61.636 44.2646C61.636 44.7581 61.7492 45.1528 61.9756 45.4489C62.202 45.745 62.5343 45.893 62.9726 45.893ZM66.668 46.6201V41.7524C66.668 41.6334 66.6724 41.5072 66.6811 41.3736C66.6898 41.2372 66.7144 41.1037 66.7551 40.9731C66.7986 40.8396 66.8697 40.7177 66.9684 40.6074C67.0874 40.4767 67.218 40.3839 67.3603 40.3287C67.5025 40.2736 67.6433 40.2416 67.7826 40.2329C67.9248 40.2242 68.0554 40.2199 68.1745 40.2199H68.7666V40.9687H68.218C68.0032 40.9687 67.8421 41.0224 67.7347 41.1298C67.6302 41.2343 67.578 41.3838 67.578 41.5783V46.6201H66.668ZM65.8886 42.6493V41.9179H68.7666V42.6493H65.8886ZM70.7678 46.6201L72.8054 40.3505H74.1159L76.1535 46.6201H75.2087L73.3322 40.8991H73.5673L71.7126 46.6201H70.7678ZM71.8258 45.2051V44.3517H75.0999V45.2051H71.8258ZM79.1421 46.7507C78.6922 46.7507 78.3149 46.6419 78.0101 46.4242C77.7053 46.2036 77.4746 45.9061 77.3178 45.5316C77.1611 45.1572 77.0827 44.7349 77.0827 44.2646C77.0827 43.7944 77.1596 43.3721 77.3135 42.9977C77.4702 42.6232 77.6995 42.3286 78.0014 42.1138C78.3062 41.8961 78.6806 41.7873 79.1247 41.7873C79.5659 41.7873 79.9461 41.8961 80.2654 42.1138C80.5876 42.3286 80.8358 42.6232 81.0099 42.9977C81.1841 43.3692 81.2712 43.7915 81.2712 44.2646C81.2712 44.7349 81.1841 45.1587 81.0099 45.536C80.8387 45.9104 80.5934 46.2065 80.2741 46.4242C79.9577 46.6419 79.5804 46.7507 79.1421 46.7507ZM76.9303 48.71V41.9179H77.7401V45.3009H77.8446V48.71H76.9303ZM79.0158 45.9278C79.3061 45.9278 79.5456 45.8538 79.7342 45.7058C79.9258 45.5578 80.068 45.3589 80.1609 45.1093C80.2567 44.8568 80.3046 44.5752 80.3046 44.2646C80.3046 43.957 80.2567 43.6783 80.1609 43.4287C80.068 43.1791 79.9244 42.9802 79.7299 42.8322C79.5354 42.6842 79.2872 42.6102 78.9854 42.6102C78.7009 42.6102 78.4658 42.6798 78.28 42.8191C78.0972 42.9585 77.9607 43.1529 77.8708 43.4026C77.7837 43.6522 77.7401 43.9396 77.7401 44.2646C77.7401 44.5897 77.7837 44.8771 77.8708 45.1267C77.9578 45.3763 78.0957 45.5723 78.2844 45.7145C78.4731 45.8567 78.7169 45.9278 79.0158 45.9278ZM84.4399 46.7507C83.99 46.7507 83.6127 46.6419 83.3079 46.4242C83.0031 46.2036 82.7724 45.9061 82.6156 45.5316C82.4589 45.1572 82.3805 44.7349 82.3805 44.2646C82.3805 43.7944 82.4574 43.3721 82.6113 42.9977C82.768 42.6232 82.9973 42.3286 83.2992 42.1138C83.604 41.8961 83.9784 41.7873 84.4225 41.7873C84.8637 41.7873 85.244 41.8961 85.5632 42.1138C85.8854 42.3286 86.1336 42.6232 86.3078 42.9977C86.4819 43.3692 86.569 43.7915 86.569 44.2646C86.569 44.7349 86.4819 45.1587 86.3078 45.536C86.1365 45.9104 85.8912 46.2065 85.5719 46.4242C85.2556 46.6419 84.8782 46.7507 84.4399 46.7507ZM82.2281 48.71V41.9179H83.038V45.3009H83.1425V48.71H82.2281ZM84.3137 45.9278C84.6039 45.9278 84.8434 45.8538 85.0321 45.7058C85.2236 45.5578 85.3659 45.3589 85.4587 45.1093C85.5545 44.8568 85.6024 44.5752 85.6024 44.2646C85.6024 43.957 85.5545 43.6783 85.4587 43.4287C85.3659 43.1791 85.2222 42.9802 85.0277 42.8322C84.8332 42.6842 84.5851 42.6102 84.2832 42.6102C83.9987 42.6102 83.7636 42.6798 83.5779 42.8191C83.395 42.9585 83.2586 43.1529 83.1686 43.4026C83.0815 43.6522 83.038 43.9396 83.038 44.2646C83.038 44.5897 83.0815 44.8771 83.1686 45.1267C83.2557 45.3763 83.3935 45.5723 83.5822 45.7145C83.7709 45.8567 84.0147 45.9278 84.3137 45.9278ZM89.5723 46.7507C89.1021 46.7507 88.6943 46.6448 88.3489 46.4329C88.0034 46.221 87.7364 45.9293 87.5477 45.5578C87.362 45.1833 87.2691 44.7523 87.2691 44.2646C87.2691 43.7741 87.3649 43.3431 87.5564 42.9715C87.748 42.5971 88.0165 42.3068 88.3619 42.1008C88.7073 41.8918 89.1108 41.7873 89.5723 41.7873C90.0425 41.7873 90.4504 41.8932 90.7958 42.1051C91.1412 42.317 91.4082 42.6087 91.5969 42.9802C91.7856 43.3518 91.8799 43.7799 91.8799 44.2646C91.8799 44.7552 91.7841 45.1877 91.5925 45.5621C91.4039 45.9336 91.1368 46.2254 90.7914 46.4373C90.446 46.6462 90.0396 46.7507 89.5723 46.7507ZM89.5723 45.893C90.0222 45.893 90.3575 45.7421 90.5781 45.4402C90.8016 45.1354 90.9133 44.7436 90.9133 44.2646C90.9133 43.7741 90.8001 43.3823 90.5737 43.0891C90.3502 42.793 90.0164 42.645 89.5723 42.645C89.2675 42.645 89.0165 42.7147 88.8191 42.854C88.6217 42.9904 88.4751 43.1805 88.3793 43.4243C88.2836 43.6653 88.2357 43.9454 88.2357 44.2646C88.2357 44.7581 88.3489 45.1528 88.5753 45.4489C88.8017 45.745 89.134 45.893 89.5723 45.893ZM92.9237 41.1472V40.2634H93.8337V41.1472H92.9237ZM92.9237 46.6201V41.9179H93.8337V46.6201H92.9237ZM98.4414 46.6201V44.3082C98.4414 44.1253 98.4255 43.9381 98.3935 43.7465C98.3645 43.5521 98.3065 43.3721 98.2194 43.2066C98.1352 43.0412 98.0148 42.9077 97.858 42.8061C97.7042 42.7045 97.5024 42.6537 97.2528 42.6537C97.0903 42.6537 96.9364 42.6813 96.7913 42.7364C96.6462 42.7887 96.5185 42.8743 96.4082 42.9933C96.3008 43.1123 96.2151 43.2691 96.1513 43.4635C96.0903 43.658 96.0598 43.8946 96.0598 44.1732L95.4938 43.9599C95.4938 43.5332 95.5737 43.1573 95.7333 42.8322C95.8929 42.5042 96.1223 42.2488 96.4212 42.0659C96.7202 41.8831 97.0816 41.7916 97.5053 41.7916C97.8304 41.7916 98.1033 41.8439 98.3239 41.9484C98.5445 42.0529 98.723 42.1907 98.8594 42.362C98.9987 42.5303 99.1047 42.7147 99.1773 42.9149C99.2498 43.1152 99.2992 43.3111 99.3253 43.5027C99.3514 43.6943 99.3645 43.8626 99.3645 44.0078V46.6201H98.4414ZM95.1368 46.6201V41.9179H95.951V43.2763H96.0598V46.6201H95.1368ZM103.189 46.6201C102.893 46.6782 102.603 46.7028 102.318 46.6941C102.034 46.6854 101.78 46.6303 101.557 46.5287C101.333 46.4271 101.165 46.2675 101.051 46.0498C100.95 45.8553 100.895 45.6579 100.886 45.4576C100.88 45.2544 100.877 45.0251 100.877 44.7697V40.6117H101.792V44.7262C101.792 44.9148 101.793 45.0788 101.796 45.2182C101.802 45.3575 101.832 45.475 101.887 45.5708C101.992 45.7508 102.157 45.8538 102.384 45.88C102.613 45.9032 102.882 45.893 103.189 45.8495V46.6201ZM99.9761 42.6493V41.9179H103.189V42.6493H99.9761ZM109.815 46.6201L109.819 43.6899C109.819 43.3503 109.732 43.0862 109.558 42.8975C109.384 42.7059 109.154 42.6102 108.87 42.6102C108.696 42.6102 108.536 42.6508 108.391 42.7321C108.249 42.8104 108.133 42.9294 108.043 43.0891C107.955 43.2458 107.912 43.4432 107.912 43.6812L107.472 43.4592C107.466 43.1283 107.536 42.838 107.681 42.5884C107.829 42.3388 108.03 42.1457 108.282 42.0093C108.535 41.87 108.818 41.8003 109.131 41.8003C109.639 41.8003 110.032 41.9527 110.311 42.2575C110.59 42.5623 110.729 42.9672 110.729 43.4722L110.725 46.6201H109.815ZM104.176 46.6201V41.9179H104.986V43.2763H105.091V46.6201H104.176ZM106.998 46.6201L107.002 43.7073C107.002 43.3648 106.915 43.0963 106.741 42.9019C106.569 42.7074 106.339 42.6102 106.048 42.6102C105.761 42.6102 105.529 42.7089 105.352 42.9062C105.178 43.1036 105.091 43.3619 105.091 43.6812L104.655 43.4026C104.655 43.0949 104.729 42.8206 104.877 42.5797C105.025 42.3388 105.226 42.1486 105.478 42.0093C105.731 41.87 106.017 41.8003 106.336 41.8003C106.67 41.8003 106.954 41.8714 107.189 42.0137C107.424 42.153 107.603 42.3489 107.725 42.6015C107.85 42.854 107.912 43.1471 107.912 43.4809L107.908 46.6201H106.998ZM113.886 46.7507C113.418 46.7507 113.007 46.6491 112.653 46.446C112.302 46.2399 112.028 45.954 111.83 45.5882C111.636 45.2196 111.539 44.7929 111.539 44.3082C111.539 43.7944 111.635 43.3489 111.826 42.9715C112.021 42.5942 112.291 42.3025 112.636 42.0964C112.981 41.8903 113.383 41.7873 113.842 41.7873C114.321 41.7873 114.729 41.899 115.065 42.1225C115.402 42.3431 115.653 42.6581 115.819 43.0673C115.987 43.4766 116.054 43.9628 116.019 44.5259H115.109V44.195C115.103 43.6493 114.999 43.2458 114.795 42.9846C114.595 42.7234 114.289 42.5927 113.877 42.5927C113.421 42.5927 113.079 42.7364 112.849 43.0238C112.62 43.3111 112.505 43.7262 112.505 44.269C112.505 44.7857 112.62 45.1862 112.849 45.4707C113.079 45.7522 113.409 45.893 113.842 45.893C114.126 45.893 114.372 45.8292 114.578 45.7014C114.787 45.5708 114.949 45.3851 115.065 45.1441L115.958 45.4271C115.775 45.848 115.498 46.1746 115.126 46.4068C114.755 46.6361 114.341 46.7507 113.886 46.7507ZM112.209 44.5259V43.8162H115.566V44.5259H112.209ZM120.168 46.6201V44.3082C120.168 44.1253 120.153 43.9381 120.121 43.7465C120.092 43.5521 120.034 43.3721 119.946 43.2066C119.862 43.0412 119.742 42.9077 119.585 42.8061C119.431 42.7045 119.229 42.6537 118.98 42.6537C118.817 42.6537 118.663 42.6813 118.518 42.7364C118.373 42.7887 118.246 42.8743 118.135 42.9933C118.028 43.1123 117.942 43.2691 117.878 43.4635C117.817 43.658 117.787 43.8946 117.787 44.1732L117.221 43.9599C117.221 43.5332 117.301 43.1573 117.46 42.8322C117.62 42.5042 117.849 42.2488 118.148 42.0659C118.447 41.8831 118.809 41.7916 119.232 41.7916C119.557 41.7916 119.83 41.8439 120.051 41.9484C120.272 42.0529 120.45 42.1907 120.586 42.362C120.726 42.5303 120.832 42.7147 120.904 42.9149C120.977 43.1152 121.026 43.3111 121.052 43.5027C121.078 43.6943 121.092 43.8626 121.092 44.0078V46.6201H120.168ZM116.864 46.6201V41.9179H117.678V43.2763H117.787V46.6201H116.864ZM124.916 46.6201C124.62 46.6782 124.33 46.7028 124.046 46.6941C123.761 46.6854 123.507 46.6303 123.284 46.5287C123.06 46.4271 122.892 46.2675 122.779 46.0498C122.677 45.8553 122.622 45.6579 122.613 45.4576C122.607 45.2544 122.604 45.0251 122.604 44.7697V40.6117H123.519V44.7262C123.519 44.9148 123.52 45.0788 123.523 45.2182C123.529 45.3575 123.559 45.475 123.614 45.5708C123.719 45.7508 123.884 45.8538 124.111 45.88C124.34 45.9032 124.609 45.893 124.916 45.8495V46.6201ZM121.703 42.6493V41.9179H124.916V42.6493H121.703Z" fill="#E7E7E7"/>
</svg>
