<svg width="92" height="27" viewBox="0 0 92 27" fill="none" xmlns="http://www.w3.org/2000/svg">
<path d="M0.428223 16.0254C0.428223 14.7576 0.678117 13.5022 1.16367 12.3309C1.64922 11.1596 2.36088 10.0953 3.25806 9.19879C4.15523 8.3023 5.22029 7.59115 6.39249 7.10597C7.56474 6.62084 8.82108 6.37109 10.0899 6.37109V16.0254H0.428223Z" fill="#00A4F4"/>
<path d="M0.428223 16.0254C0.428223 17.3678 0.678117 18.6971 1.16367 19.9373C1.64922 21.1775 2.36088 22.3044 3.25806 23.2536C4.15523 24.2028 5.22029 24.9558 6.39249 25.4695C7.56474 25.9832 8.82108 26.2476 10.0899 26.2476V16.0254H0.428223Z" fill="#2CBEFF"/>
<path d="M19.7515 16.0254C19.7515 17.3678 19.5018 18.6971 19.0163 19.9373C18.5307 21.1775 17.8191 22.3044 16.9218 23.2536C16.0246 24.2028 14.9595 24.9558 13.7872 25.4695C12.615 25.9832 11.3586 26.2476 10.0898 26.2476V16.0254H19.7515Z" fill="#75D4FF"/>
<path d="M26.0032 7.50675C26.0032 11.5841 22.6952 14.8895 18.6148 14.8895H11.2266V7.50675C11.2266 3.4294 14.5344 0.124023 18.6148 0.124023C22.6952 0.124023 26.0032 3.4294 26.0032 7.50675Z" fill="#0084D4"/>
<path d="M35.4295 19.5654H33.1437V9.3555H35.4295V13.409H40.7631V9.3555H43.0489V19.5654H40.7631V15.4662H35.4295V19.5654ZM48.3286 19.7178C45.7838 19.7178 44.0465 18.4682 44.0465 15.7558C44.0465 13.3176 45.7685 11.7785 48.2829 11.7785C50.782 11.7785 52.4431 13.089 52.4431 15.4815C52.4431 15.7558 52.4126 15.9539 52.3821 16.2129H46.1647C46.2257 17.3863 46.7743 17.8892 48.2524 17.8892C49.6087 17.8892 50.0811 17.5387 50.0811 16.8834V16.731H52.3669V16.8987C52.3669 18.5597 50.7516 19.7178 48.3286 19.7178ZM48.2372 13.5614C46.8809 13.5614 46.3019 14.0185 46.1952 15.0091H50.2487C50.1877 14.0033 49.5782 13.5614 48.2372 13.5614ZM55.7592 19.7178C54.1134 19.7178 53.1229 18.9559 53.1229 17.6758C53.1229 16.5482 53.961 15.8472 55.5915 15.6796L58.8678 15.3443V15.0548C58.8678 14.0643 58.4259 13.79 57.2068 13.79C56.0487 13.79 55.5763 14.0947 55.5763 14.9633V15.0243H53.2752V14.9786C53.2752 13.089 54.8601 11.7785 57.3745 11.7785C59.9193 11.7785 61.1232 13.089 61.1232 15.0853V19.5654H58.9898V17.813H58.8678C58.5174 19.0016 57.4506 19.7178 55.7592 19.7178ZM55.4239 17.5234C55.4239 17.9349 55.7439 18.1025 56.4144 18.1025C57.9688 18.1025 58.8069 17.7368 58.8678 16.6548L56.2163 16.9596C55.6677 17.0053 55.4239 17.1577 55.4239 17.5234ZM64.5676 19.5654H62.2818V9.3555H64.5676V19.5654ZM68.0499 19.5654H65.7641V9.3555H68.2023L71.8596 14.1862L73.2615 16.3348H73.4291L73.3225 14.2776V9.3555H75.6083V19.5654H73.1701L69.4061 14.689L68.1108 12.769H67.9584L68.0499 14.6433V19.5654ZM80.8746 19.7178C78.3297 19.7178 76.5925 18.4682 76.5925 15.7558C76.5925 13.3176 78.3145 11.7785 80.8288 11.7785C83.328 11.7785 84.989 13.089 84.989 15.4815C84.989 15.7558 84.9585 15.9539 84.9281 16.2129H78.7107C78.7716 17.3863 79.3202 17.8892 80.7984 17.8892C82.1546 17.8892 82.627 17.5387 82.627 16.8834V16.731H84.9128V16.8987C84.9128 18.5597 83.2975 19.7178 80.8746 19.7178ZM80.7831 13.5614C79.4269 13.5614 78.8478 14.0185 78.7411 15.0091H82.7946C82.7337 14.0033 82.1241 13.5614 80.7831 13.5614ZM91.3376 19.5654H89.448C87.6651 19.5654 86.5831 18.7273 86.5831 16.8072V13.8204H85.3793V11.9308H86.5831V10.4527H88.8689V11.9308H91.3376V13.8204H88.8689V16.5482C88.8689 17.3101 89.1585 17.5082 89.9661 17.5082H91.3376V19.5654Z" fill="#0069AB"/>
</svg>
