<svg width="25" height="25" viewBox="0 0 25 25" fill="none" xmlns="http://www.w3.org/2000/svg">
<g opacity="0.7">
<path d="M18.4098 21.2339C17.2923 22.287 16.0722 22.1207 14.8977 21.6219C13.6548 21.112 12.5146 21.0898 11.2032 21.6219C9.56123 22.3091 8.69462 22.1096 7.71398 21.2339C2.14941 15.6582 2.97042 7.1671 9.28757 6.85672C10.8269 6.93431 11.8988 7.677 12.7996 7.74351C14.1452 7.47748 15.4337 6.71261 16.8704 6.81238C18.5923 6.9454 19.8922 7.61049 20.7474 8.80767C17.1897 10.8806 18.0335 15.4365 21.2947 16.7112C20.6448 18.374 19.801 20.0256 18.3984 21.245L18.4098 21.2339ZM12.6856 6.79021C12.5146 4.31826 14.5785 2.27863 16.9502 2.0791C17.2809 4.93902 14.282 7.06733 12.6856 6.79021Z" fill="black"/>
</g>
</svg>
