<svg width="18" height="19" viewBox="0 0 18 19" fill="none" xmlns="http://www.w3.org/2000/svg">
<path d="M14.7068 3.60254H3.09632C2.29811 3.60254 1.65228 4.25563 1.65228 5.05384L1.64502 13.7617C1.64502 14.5599 2.29811 15.213 3.09632 15.213H14.7068C15.505 15.213 16.1581 14.5599 16.1581 13.7617V5.05384C16.1581 4.25563 15.505 3.60254 14.7068 3.60254ZM14.4165 6.68656L9.28614 9.89395C9.05393 10.0391 8.74916 10.0391 8.51695 9.89395L3.38659 6.68656C3.31382 6.64572 3.2501 6.59053 3.19929 6.52435C3.14847 6.45816 3.11161 6.38235 3.09094 6.30151C3.07027 6.22067 3.06621 6.13647 3.07902 6.05402C3.09183 5.97156 3.12124 5.89256 3.16547 5.8218C3.20969 5.75104 3.26781 5.68999 3.33632 5.64234C3.40482 5.5947 3.48228 5.56145 3.564 5.5446C3.64573 5.52776 3.73002 5.52767 3.81178 5.54435C3.89355 5.56102 3.97107 5.59412 4.03967 5.64162L8.90154 8.68211L13.7634 5.64162C13.832 5.59412 13.9095 5.56102 13.9913 5.54435C14.0731 5.52767 14.1574 5.52776 14.2391 5.5446C14.3208 5.56145 14.3983 5.5947 14.4668 5.64234C14.5353 5.68999 14.5934 5.75104 14.6376 5.8218C14.6818 5.89256 14.7113 5.97156 14.7241 6.05402C14.7369 6.13647 14.7328 6.22067 14.7122 6.30151C14.6915 6.38235 14.6546 6.45816 14.6038 6.52435C14.553 6.59053 14.4893 6.64572 14.4165 6.68656Z" fill="#00A4F4"/>
</svg>
