<svg width="18" height="18" viewBox="0 0 18 18" fill="none" xmlns="http://www.w3.org/2000/svg">
<path d="M5.76187 3.40346C5.76187 3.30423 5.72245 3.20906 5.65228 3.13889C5.58211 3.06872 5.48694 3.0293 5.38771 3.0293C5.28847 3.0293 5.1933 3.06872 5.12313 3.13889C5.05296 3.20906 5.01354 3.30423 5.01354 3.40346V3.77763H4.26521C3.86827 3.77763 3.48759 3.93531 3.20692 4.21599C2.92624 4.49666 2.76855 4.87735 2.76855 5.27428L2.76855 6.02261H14.7418V5.27428C14.7418 4.87735 14.5841 4.49666 14.3035 4.21599C14.0228 3.93531 13.6421 3.77763 13.2452 3.77763H12.4968V3.40346C12.4968 3.30423 12.4574 3.20906 12.3872 3.13889C12.3171 3.06872 12.2219 3.0293 12.1227 3.0293C12.0234 3.0293 11.9283 3.06872 11.8581 3.13889C11.7879 3.20906 11.7485 3.30423 11.7485 3.40346V3.77763H5.76187V3.40346ZM9.80434 10.6967C10.272 10.6967 10.6904 10.3345 10.6904 9.81365C10.6904 9.19104 10.296 8.8932 9.8223 8.8932C9.38378 8.8932 8.94826 9.18281 8.94826 9.79868C8.94826 10.4101 9.3546 10.6967 9.80434 10.6967Z" fill="#00A4F4"/>
<path d="M14.7418 13.5055V6.77051H2.76855V13.5055C2.76855 13.9024 2.92624 14.2831 3.20692 14.5638C3.48759 14.8444 3.86827 15.0021 4.26521 15.0021H13.2452C13.6421 15.0021 14.0228 14.8444 14.3035 14.5638C14.5841 14.2831 14.7418 13.9024 14.7418 13.5055ZM9.75495 12.6C8.92431 12.6 8.51572 12.026 8.48055 11.5471H8.99166C9.02384 11.824 9.28126 12.1607 9.77815 12.1607C10.4097 12.1607 10.7517 11.5261 10.7547 10.5413H10.7345C10.62 10.8511 10.2578 11.1325 9.69958 11.1325C9.062 11.1325 8.44538 10.676 8.44538 9.80798C8.44538 8.95713 9.09717 8.45425 9.79013 8.45425C10.6672 8.45425 11.2516 9.00352 11.2516 10.4508C11.2516 11.8015 10.6964 12.5992 9.75495 12.5992V12.6ZM7.59228 8.53282V12.5229H7.08641V9.07461H7.07743C6.86042 9.19135 6.41666 9.46374 6.13604 9.65606V9.13523C6.45136 8.91518 6.77946 8.71403 7.11859 8.53282H7.59228Z" fill="#00A4F4"/>
</svg>
