<svg width="19" height="19" viewBox="0 0 19 19" fill="none" xmlns="http://www.w3.org/2000/svg">
<path d="M11.5364 11.9302L12.5674 10.8988C12.7063 10.7616 12.882 10.6677 13.0732 10.6284C13.2643 10.5892 13.4628 10.6063 13.6445 10.6778L14.901 11.1797C15.0846 11.2542 15.242 11.3814 15.3534 11.5453C15.4648 11.7092 15.5252 11.9024 15.527 12.1006V14.4029C15.5259 14.5377 15.4976 14.6709 15.4437 14.7945C15.3898 14.918 15.3115 15.0294 15.2134 15.1219C15.1154 15.2144 14.9997 15.2861 14.8732 15.3327C14.7467 15.3792 14.6121 15.3997 14.4775 15.3929C5.6725 14.8449 3.89584 7.38548 3.55984 4.53063C3.54424 4.39043 3.55849 4.24852 3.60166 4.11424C3.64482 3.97995 3.71591 3.85632 3.81026 3.7515C3.90461 3.64667 4.02008 3.56302 4.14906 3.50604C4.27805 3.44906 4.41764 3.42005 4.55864 3.42092H6.78176C6.98014 3.4215 7.17381 3.48145 7.33786 3.59305C7.50191 3.70465 7.62884 3.86279 7.70231 4.04714L8.20401 5.3042C8.27777 5.48519 8.29659 5.68391 8.25811 5.87554C8.21964 6.06717 8.12558 6.24321 7.98768 6.38168L6.95667 7.41311C6.95667 7.41311 7.55042 11.4329 11.5364 11.9302Z" fill="#00A4F4"/>
</svg>
