<svg width="14" height="14" viewBox="0 0 14 14" fill="none" xmlns="http://www.w3.org/2000/svg">
<path d="M4.33527 0.415527L9.8212 0.415527C11.9111 0.415527 13.6091 2.11355 13.6091 4.20343V9.68937C13.6091 10.694 13.21 11.6575 12.4997 12.3678C11.7893 13.0782 10.8258 13.4773 9.8212 13.4773H4.33527C2.24539 13.4773 0.547363 11.7792 0.547363 9.68937L0.547363 4.20343C0.547363 3.19882 0.946445 2.23535 1.65682 1.52498C2.36719 0.814609 3.33065 0.415527 4.33527 0.415527ZM4.20465 1.7217C3.5811 1.7217 2.98308 1.96941 2.54216 2.41033C2.10124 2.85125 1.85354 3.44926 1.85354 4.07282L1.85354 9.81998C1.85354 11.1196 2.90501 12.1711 4.20465 12.1711H9.95182C10.5754 12.1711 11.1734 11.9234 11.6143 11.4825C12.0552 11.0416 12.3029 10.4435 12.3029 9.81998V4.07282C12.3029 2.77317 11.2515 1.7217 9.95182 1.7217L4.20465 1.7217ZM10.5069 2.70133C10.7235 2.70133 10.9311 2.78734 11.0842 2.94044C11.2373 3.09354 11.3233 3.30118 11.3233 3.51769C11.3233 3.7342 11.2373 3.94185 11.0842 4.09494C10.9311 4.24804 10.7235 4.33405 10.5069 4.33405C10.2904 4.33405 10.0828 4.24804 9.92969 4.09494C9.77659 3.94185 9.69059 3.7342 9.69059 3.51769C9.69059 3.30118 9.77659 3.09354 9.92969 2.94044C10.0828 2.78734 10.2904 2.70133 10.5069 2.70133ZM7.07824 3.68096C7.94428 3.68096 8.77486 4.025 9.38725 4.63739C9.99964 5.24978 10.3437 6.08035 10.3437 6.9464C10.3437 7.81245 9.99964 8.64302 9.38725 9.25541C8.77486 9.8678 7.94428 10.2118 7.07824 10.2118C6.21219 10.2118 5.38161 9.8678 4.76922 9.25541C4.15684 8.64302 3.8128 7.81245 3.8128 6.9464C3.8128 6.08035 4.15684 5.24978 4.76922 4.63739C5.38161 4.025 6.21219 3.68096 7.07824 3.68096ZM7.07824 4.98714C6.55861 4.98714 6.06026 5.19356 5.69283 5.56099C5.3254 5.92843 5.11897 6.42677 5.11897 6.9464C5.11897 7.46603 5.3254 7.96437 5.69283 8.33181C6.06026 8.69924 6.55861 8.90566 7.07824 8.90566C7.59786 8.90566 8.09621 8.69924 8.46364 8.33181C8.83108 7.96437 9.0375 7.46603 9.0375 6.9464C9.0375 6.42677 8.83108 5.92843 8.46364 5.56099C8.09621 5.19356 7.59786 4.98714 7.07824 4.98714Z" fill="#00A4F4"/>
</svg>
