<svg width="14" height="14" viewBox="0 0 14 14" fill="none" xmlns="http://www.w3.org/2000/svg">
<path d="M12.1046 0.415527C12.4895 0.415527 12.8586 0.568432 13.1308 0.840605C13.403 1.11278 13.5559 1.48192 13.5559 1.86683V12.026C13.5559 12.4109 13.403 12.78 13.1308 13.0522C12.8586 13.3244 12.4895 13.4773 12.1046 13.4773H1.94545C1.56054 13.4773 1.19139 13.3244 0.919218 13.0522C0.647045 12.78 0.494141 12.4109 0.494141 12.026L0.494141 1.86683C0.494141 1.48192 0.647045 1.11278 0.919218 0.840605C1.19139 0.568432 1.56054 0.415527 1.94545 0.415527L12.1046 0.415527ZM11.7418 11.6631V7.81718C11.7418 7.18978 11.4925 6.58807 11.0489 6.14443C10.6052 5.70079 10.0035 5.45156 9.37613 5.45156C8.75932 5.45156 8.04093 5.82889 7.69261 6.3949V5.58943H5.66804V11.6631H7.69261V8.08567C7.69261 7.52692 8.14252 7.06976 8.70127 7.06976C8.97071 7.06976 9.22911 7.17679 9.41963 7.36731C9.61015 7.55784 9.71718 7.81624 9.71718 8.08567V11.6631H11.7418ZM3.30967 4.45016C3.633 4.45016 3.94308 4.32172 4.1717 4.09309C4.40033 3.86447 4.52877 3.55438 4.52877 3.23106C4.52877 2.5562 3.98453 2.00471 3.30967 2.00471C2.98442 2.00471 2.6725 2.13391 2.44251 2.3639C2.21252 2.59388 2.08332 2.90581 2.08332 3.23106C2.08332 3.90592 2.63482 4.45016 3.30967 4.45016ZM4.31833 11.6631V5.58943H2.30827V11.6631H4.31833Z" fill="#00A4F4"/>
</svg>
