<svg width="50" height="51" viewBox="0 0 50 51" fill="none" xmlns="http://www.w3.org/2000/svg">
<path d="M0.424316 30.9134C0.424316 28.4834 0.900677 26.0771 1.82626 23.8322C2.75185 21.5871 4.10845 19.5472 5.8187 17.8289C7.52894 16.1107 9.5592 14.7476 11.7937 13.8177C14.0283 12.8879 16.4232 12.4092 18.8419 12.4092V30.9134H0.424316Z" fill="#00A4F4"/>
<path d="M0.424316 30.9136C0.424316 33.4866 0.900677 36.0343 1.82626 38.4115C2.75185 40.7885 4.10845 42.9484 5.8187 44.7677C7.52894 46.587 9.5592 48.0302 11.7937 49.0149C14.0283 49.9995 16.4232 50.5062 18.8419 50.5062V30.9136H0.424316Z" fill="#2CBEFF"/>
<path d="M37.2594 30.9136C37.2594 33.4866 36.7834 36.0343 35.8579 38.4115C34.9323 40.7885 33.5757 42.9484 31.8651 44.7677C30.1549 46.587 28.1245 48.0302 25.8899 49.0149C23.6555 49.9995 21.2604 50.5062 18.8418 50.5062V30.9136H37.2594Z" fill="#75D4FF"/>
<path d="M49.1764 14.5863C49.1764 22.4012 42.8705 28.7365 35.0922 28.7365H21.0083V14.5863C21.0083 6.77135 27.314 0.436035 35.0922 0.436035C42.8705 0.436035 49.1764 6.77135 49.1764 14.5863Z" fill="#0084D4"/>
</svg>
