<svg width="25" height="25" viewBox="0 0 25 25" fill="none" xmlns="http://www.w3.org/2000/svg">
<g opacity="0.7">
<path d="M6.87156 14.6825C6.87156 15.2396 6.65025 15.7739 6.25631 16.1679C5.86238 16.5618 5.32809 16.7831 4.77098 16.7831C4.21388 16.7831 3.67959 16.5618 3.28565 16.1679C2.89172 15.7739 2.67041 15.2396 2.67041 14.6825C2.67041 14.1254 2.89172 13.5911 3.28565 13.1972C3.67959 12.8033 4.21388 12.582 4.77098 12.582H6.87156V14.6825ZM7.92184 14.6825C7.92184 14.1254 8.14315 13.5911 8.53709 13.1972C8.93102 12.8033 9.46531 12.582 10.0224 12.582C10.5795 12.582 11.1138 12.8033 11.5077 13.1972C11.9017 13.5911 12.123 14.1254 12.123 14.6825V19.934C12.123 20.4911 11.9017 21.0254 11.5077 21.4193C11.1138 21.8132 10.5795 22.0345 10.0224 22.0345C9.46531 22.0345 8.93102 21.8132 8.53709 21.4193C8.14315 21.0254 7.92184 20.4911 7.92184 19.934V14.6825ZM10.0224 6.28025C9.46531 6.28025 8.93102 6.05894 8.53709 5.665C8.14315 5.27107 7.92184 4.73678 7.92184 4.17967C7.92184 3.62257 8.14315 3.08828 8.53709 2.69434C8.93102 2.30041 9.46531 2.0791 10.0224 2.0791C10.5795 2.0791 11.1138 2.30041 11.5077 2.69434C11.9017 3.08828 12.123 3.62257 12.123 4.17967V6.28025H10.0224ZM10.0224 7.33053C10.5795 7.33053 11.1138 7.55184 11.5077 7.94578C11.9017 8.33971 12.123 8.874 12.123 9.43111C12.123 9.98821 11.9017 10.5225 11.5077 10.9164C11.1138 11.3104 10.5795 11.5317 10.0224 11.5317H4.77098C4.21388 11.5317 3.67959 11.3104 3.28565 10.9164C2.89172 10.5225 2.67041 9.98821 2.67041 9.43111C2.67041 8.874 2.89172 8.33971 3.28565 7.94578C3.67959 7.55184 4.21388 7.33053 4.77098 7.33053H10.0224ZM18.4247 9.43111C18.4247 8.874 18.646 8.33971 19.0399 7.94578C19.4339 7.55184 19.9682 7.33053 20.5253 7.33053C21.0824 7.33053 21.6167 7.55184 22.0106 7.94578C22.4045 8.33971 22.6259 8.874 22.6259 9.43111C22.6259 9.98821 22.4045 10.5225 22.0106 10.9164C21.6167 11.3104 21.0824 11.5317 20.5253 11.5317H18.4247V9.43111ZM17.3744 9.43111C17.3744 9.98821 17.1531 10.5225 16.7592 10.9164C16.3652 11.3104 15.831 11.5317 15.2738 11.5317C14.7167 11.5317 14.1825 11.3104 13.7885 10.9164C13.3946 10.5225 13.1733 9.98821 13.1733 9.43111V4.17967C13.1733 3.62257 13.3946 3.08828 13.7885 2.69434C14.1825 2.30041 14.7167 2.0791 15.2738 2.0791C15.831 2.0791 16.3652 2.30041 16.7592 2.69434C17.1531 3.08828 17.3744 3.62257 17.3744 4.17967V9.43111ZM15.2738 17.8334C15.831 17.8334 16.3652 18.0547 16.7592 18.4486C17.1531 18.8426 17.3744 19.3769 17.3744 19.934C17.3744 20.4911 17.1531 21.0254 16.7592 21.4193C16.3652 21.8132 15.831 22.0345 15.2738 22.0345C14.7167 22.0345 14.1825 21.8132 13.7885 21.4193C13.3946 21.0254 13.1733 20.4911 13.1733 19.934V17.8334H15.2738ZM15.2738 16.7831C14.7167 16.7831 14.1825 16.5618 13.7885 16.1679C13.3946 15.7739 13.1733 15.2396 13.1733 14.6825C13.1733 14.1254 13.3946 13.5911 13.7885 13.1972C14.1825 12.8033 14.7167 12.582 15.2738 12.582H20.5253C21.0824 12.582 21.6167 12.8033 22.0106 13.1972C22.4045 13.5911 22.6259 14.1254 22.6259 14.6825C22.6259 15.2396 22.4045 15.7739 22.0106 16.1679C21.6167 16.5618 21.0824 16.7831 20.5253 16.7831H15.2738Z" fill="black"/>
</g>
</svg>
