<svg width="25" height="25" viewBox="0 0 25 25" fill="none" xmlns="http://www.w3.org/2000/svg">
<g opacity="0.7">
<path d="M18.285 10.9593C15.0921 9.06351 9.75403 8.86395 6.71083 9.81183C6.21194 9.9615 5.71306 9.66217 5.56339 9.21317C5.41373 8.71429 5.71306 8.2154 6.16206 8.06573C9.70415 7.01807 15.5411 7.21763 19.2329 9.41273C19.6819 9.66217 19.8315 10.2608 19.5821 10.7098C19.3326 11.059 18.734 11.2087 18.285 10.9593ZM18.1852 13.753C17.9358 14.1023 17.4868 14.2519 17.1375 14.0025C14.4436 12.3562 10.3527 11.8573 7.20972 12.855C6.81061 12.9548 6.36161 12.7553 6.26183 12.3562C6.16206 11.957 6.36161 11.508 6.76072 11.4083C10.4026 10.3107 14.8926 10.8595 17.9857 12.7553C18.285 12.9049 18.4347 13.4038 18.1852 13.753ZM16.9879 16.4969C16.7883 16.7962 16.4391 16.896 16.1398 16.6965C13.795 15.2497 10.8516 14.9504 7.35938 15.7486C7.01016 15.8484 6.71083 15.5989 6.61105 15.2996C6.51128 14.9504 6.76072 14.651 7.06005 14.5513C10.8516 13.7031 14.1442 14.0524 16.7384 15.6488C17.0877 15.7985 17.1375 16.1976 16.9879 16.4969ZM12.3981 2.0791C11.0878 2.0791 9.79037 2.33718 8.57982 2.83861C7.36927 3.34004 6.26933 4.07499 5.34282 5.00151C3.47163 6.87269 2.42041 9.41057 2.42041 12.0568C2.42041 14.7031 3.47163 17.2409 5.34282 19.1121C6.26933 20.0387 7.36927 20.7736 8.57982 21.275C9.79037 21.7765 11.0878 22.0345 12.3981 22.0345C15.0444 22.0345 17.5823 20.9833 19.4534 19.1121C21.3246 17.2409 22.3759 14.7031 22.3759 12.0568C22.3759 10.7465 22.1178 9.44907 21.6163 8.23851C21.1149 7.02796 20.38 5.92803 19.4534 5.00151C18.5269 4.07499 17.427 3.34004 16.2164 2.83861C15.0059 2.33718 13.7084 2.0791 12.3981 2.0791Z" fill="black"/>
</g>
</svg>
