<svg width="25" height="25" viewBox="0 0 25 25" fill="none" xmlns="http://www.w3.org/2000/svg">
<rect x="0.34668" y="0.507812" width="23.9465" height="23.9465" rx="4.35391" fill="#EFF9FF"/>
<path d="M9.50298 5.40625C9.12938 5.40625 8.77108 5.54823 8.50691 5.80096C8.24273 6.0537 8.09432 6.39647 8.09432 6.75389C8.09432 7.11131 8.24273 7.45408 8.50691 7.70682C8.77108 7.95955 9.12938 8.10153 9.50298 8.10153H15.1376C15.3226 8.10153 15.5058 8.06667 15.6767 7.99895C15.8476 7.93122 16.0029 7.83196 16.1337 7.70682C16.2645 7.58168 16.3683 7.43311 16.4391 7.26961C16.5098 7.10611 16.5463 6.93087 16.5463 6.75389C16.5463 6.57691 16.5098 6.40167 16.4391 6.23817C16.3683 6.07467 16.2645 5.9261 16.1337 5.80096C16.0029 5.67583 15.8476 5.57656 15.6767 5.50883C15.5058 5.44111 15.3226 5.40625 15.1376 5.40625H9.50298Z" fill="#0069AB"/>
<path fill-rule="evenodd" clip-rule="evenodd" d="M9.30461 9.44917C9.09403 9.44923 8.88613 9.49446 8.69622 9.58153C8.50632 9.66859 8.33918 9.79536 8.20721 9.95236L6.64387 11.8132C6.44288 12.0526 6.33338 12.3507 6.3335 12.6577V18.2088C6.3335 18.5662 6.48191 18.909 6.74608 19.1618C7.01026 19.4145 7.36856 19.5565 7.74216 19.5565H16.8981C17.2717 19.5565 17.63 19.4145 17.8942 19.1618C18.1583 18.909 18.3068 18.5662 18.3068 18.2088V12.6576C18.3069 12.3505 18.1973 12.0525 17.9963 11.8131L16.4333 9.95229C16.3013 9.79517 16.134 9.66841 15.944 9.58133C15.7539 9.49428 15.5458 9.44911 15.3351 9.44917H9.30461ZM13.0246 12.4813C13.0246 12.1092 12.7093 11.8075 12.3203 11.8075C11.9313 11.8075 11.616 12.1092 11.616 12.4813V13.829H10.2073C9.81831 13.829 9.50297 14.1306 9.50297 14.5028C9.50297 14.8749 9.81831 15.1766 10.2073 15.1766H11.616V16.5242C11.616 16.8964 11.9313 17.1981 12.3203 17.1981C12.7093 17.1981 13.0246 16.8964 13.0246 16.5242V15.1766H14.4333C14.8223 15.1766 15.1376 14.8749 15.1376 14.5028C15.1376 14.1306 14.8223 13.829 14.4333 13.829H13.0246V12.4813Z" fill="#0069AB"/>
</svg>
