<svg width="25" height="25" viewBox="0 0 25 25" fill="none" xmlns="http://www.w3.org/2000/svg">
<rect x="0.849609" y="0.507812" width="23.9465" height="23.9465" rx="4.35391" fill="#EFF9FF"/>
<path d="M16.3332 18.9615L17.0843 18.2218L14.178 15.3596L13.427 16.0993C13.0242 16.4959 12.8229 16.973 12.8229 17.5304C12.8229 18.0878 13.0242 18.5649 13.427 18.9615C13.8297 19.3582 14.3141 19.5565 14.8801 19.5565C15.4461 19.5565 15.9305 19.3582 16.3332 18.9615ZM17.9986 17.3214L18.7496 16.5817C19.1524 16.1851 19.3537 15.708 19.3537 15.1506C19.3537 14.5932 19.1524 14.1161 18.7496 13.7195C18.3469 13.3229 17.8625 13.1246 17.2965 13.1246C16.7305 13.1246 16.2461 13.3229 15.8434 13.7195L15.0923 14.4592L17.9986 17.3214ZM8.90434 10.5518H15.4352V9.2654H8.90434V10.5518ZM12.1698 7.49662C12.3113 7.49662 12.4284 7.45096 12.5211 7.35962C12.6139 7.26829 12.66 7.15316 12.6596 7.01423C12.6592 6.8753 12.6128 6.76017 12.5205 6.66884C12.4282 6.5775 12.3113 6.53184 12.1698 6.53184C12.0283 6.53184 11.9114 6.5775 11.8191 6.66884C11.7268 6.76017 11.6804 6.8753 11.68 7.01423C11.6795 7.15316 11.7259 7.2685 11.8191 7.36027C11.9122 7.45203 12.0291 7.49748 12.1698 7.49662ZM11.5983 18.2701H7.59817C7.23897 18.2701 6.93158 18.1442 6.67601 17.8925C6.42043 17.6408 6.29243 17.3379 6.29199 16.9837V7.97902C6.29199 7.62526 6.42 7.32253 6.67601 7.07083C6.93202 6.81913 7.2394 6.69306 7.59817 6.69263H10.3411C10.4826 6.30672 10.7195 5.99584 11.0517 5.76001C11.3839 5.52417 11.7566 5.40625 12.1698 5.40625C12.583 5.40625 12.9559 5.52417 13.2885 5.76001C13.6212 5.99584 13.8578 6.30672 13.9984 6.69263H16.7414C17.1006 6.69263 17.4082 6.8187 17.6642 7.07083C17.9202 7.32296 18.048 7.62569 18.0476 7.97902V11.9186C17.5904 11.8114 17.1361 11.8032 16.6846 11.8941C16.2331 11.985 15.8166 12.1542 15.4352 12.4016V11.8382H8.90434V13.1246H14.6025L13.2964 14.4109H8.90434V15.6973H12.0881C11.8378 16.0725 11.6662 16.4827 11.5735 16.9277C11.4808 17.3728 11.4893 17.8203 11.599 18.2701" fill="#0069AB"/>
</svg>
