<svg width="13" height="13" viewBox="0 0 13 13" fill="none" xmlns="http://www.w3.org/2000/svg">
<path d="M8.34743 9.1143L9.37845 8.08287C9.51731 7.94567 9.693 7.85176 9.88419 7.81252C10.0754 7.77329 10.2738 7.79042 10.4555 7.86185L11.712 8.36375C11.8956 8.43829 12.053 8.56552 12.1644 8.7294C12.2758 8.89329 12.3362 9.08649 12.338 9.28467V11.587C12.3369 11.7218 12.3086 11.855 12.2547 11.9786C12.2008 12.1021 12.1225 12.2135 12.0245 12.306C11.9264 12.3985 11.8107 12.4702 11.6842 12.5168C11.5578 12.5633 11.4232 12.5838 11.2886 12.577C2.48354 12.029 0.706876 4.56956 0.370876 1.71471C0.355278 1.57451 0.369529 1.43261 0.412691 1.29832C0.455852 1.16403 0.526946 1.04041 0.621296 0.93558C0.715645 0.830753 0.831112 0.747099 0.9601 0.690122C1.08909 0.633144 1.22867 0.604134 1.36967 0.604999H3.5928C3.79118 0.605587 3.98485 0.665535 4.1489 0.777133C4.31295 0.888731 4.43987 1.04688 4.51335 1.23122L5.01504 2.48828C5.0888 2.66927 5.10762 2.868 5.06915 3.05962C5.03067 3.25125 4.93661 3.42729 4.79872 3.56576L3.7677 4.59719C3.7677 4.59719 4.36145 8.617 8.34743 9.1143Z" fill="url(#paint0_linear_2001_1183)"/>
<defs>
<linearGradient id="paint0_linear_2001_1183" x1="-65.7603" y1="8.22434" x2="7.95484" y2="17.7894" gradientUnits="userSpaceOnUse">
<stop stop-color="#007DAA"/>
<stop offset="0.626806" stop-color="#15B2FF"/>
</linearGradient>
</defs>
</svg>
