<svg width="25" height="25" viewBox="0 0 25 25" fill="none" xmlns="http://www.w3.org/2000/svg">
<rect x="0.352051" y="0.507812" width="23.9465" height="23.9465" rx="4.35391" fill="#EFF9FF"/>
<path d="M13.2323 9.1649V6.49473C13.2323 5.89358 12.7449 5.40625 12.1438 5.40625H7.69917C7.32217 5.40625 6.88281 5.85503 6.88281 6.22261L6.88281 18.7401C6.88281 19.1077 7.32217 19.5565 7.69917 19.5565H16.9512C17.3282 19.5565 17.7676 19.1077 17.7676 18.7401V10.9167C17.7676 10.3155 17.2803 9.82819 16.6791 9.82819H13.9126C13.5384 9.82819 13.2323 9.52971 13.2323 9.1649ZM15.1748 14.1252L15.4954 14.4378C15.6726 14.6105 15.6726 14.8905 15.4954 15.0632L14.8477 15.6947C14.7382 15.8015 14.7382 15.9776 14.8477 16.0844L15.4999 16.7203C15.6771 16.8931 15.6771 17.173 15.4999 17.3458L15.1793 17.6584C15.0022 17.8311 14.715 17.8311 14.5379 17.6584L13.8758 17.0126C13.7701 16.9095 13.6015 16.9095 13.4958 17.0126L12.8337 17.6581C12.6566 17.8308 12.3694 17.8308 12.1923 17.6581L11.8717 17.3455C11.6945 17.1728 11.6945 16.8928 11.8717 16.7201L12.5239 16.0842C12.6334 15.9773 12.6334 15.8013 12.5239 15.6945L11.1215 14.3274C11.0707 14.2779 11.0026 14.2501 10.9316 14.2501H10.7832C10.6329 14.2501 10.5111 14.372 10.5111 14.5223V15.5767C10.5111 15.821 10.3081 16.0189 10.0575 16.0189H9.60401C9.35343 16.0189 9.15048 15.821 9.15048 15.5767V11.1548C9.15048 10.9105 9.35343 10.7126 9.60401 10.7126H11.8717C12.8737 10.7126 13.6858 11.5044 13.6858 12.4814C13.6858 13.0197 13.4361 13.4974 13.0458 13.8201C12.9039 13.9374 12.8718 14.1579 13.0036 14.2865L13.4958 14.7664C13.6015 14.8694 13.7701 14.8694 13.8758 14.7664L14.5333 14.1252C14.7105 13.9525 14.9976 13.9525 15.1748 14.1252ZM11.8717 12.9236H10.9533C10.7091 12.9236 10.5111 12.7256 10.5111 12.4814C10.5111 12.2371 10.7091 12.0392 10.9533 12.0392H11.8717C12.1217 12.0392 12.3252 12.2376 12.3252 12.4814C12.3252 12.7251 12.1217 12.9236 11.8717 12.9236ZM17.7676 8.77522C17.7676 8.86833 17.6921 8.94381 17.599 8.94381H15.2278C14.6267 8.94381 14.1393 8.45648 14.1393 7.85533V5.57916C14.1393 5.48366 14.2168 5.40625 14.3122 5.40625C14.4937 5.40625 14.6666 5.47534 14.7941 5.59971L17.5692 8.30815C17.6967 8.43252 17.7676 8.6011 17.7676 8.77522Z" fill="#0069AB"/>
</svg>
