<svg width="25" height="25" viewBox="0 0 25 25" fill="none" xmlns="http://www.w3.org/2000/svg">
<g opacity="0.7">
<path d="M21.7096 17.7933C21.7096 18.48 21.3323 19.8022 20.4848 20.5285C20.3153 20.6607 20.1458 20.5861 20.2203 20.3934C20.4671 19.7814 21.0315 18.3657 20.767 18.0398C20.5798 17.7924 19.8067 17.8113 19.1473 17.868C18.8465 17.9067 18.582 17.9246 18.3771 17.9671C18.1871 17.9822 18.1489 17.8132 18.3389 17.681C18.5863 17.5038 18.8598 17.3674 19.1492 17.2767C20.2203 16.9518 21.4581 17.1473 21.636 17.3551C21.6695 17.3948 21.7096 17.5072 21.7096 17.7933ZM19.9194 19.0145C19.6738 19.205 19.4159 19.3785 19.1473 19.534C17.1709 20.7382 14.6106 21.3691 12.3874 21.3691C8.80809 21.3691 5.60694 20.0308 3.1779 17.7915C2.96927 17.6196 3.14157 17.3702 3.3856 17.5053C6.00277 19.0542 9.24211 19.9911 12.5951 19.9911C14.7056 19.9911 16.98 19.5907 19.1473 18.7293C19.2991 18.6717 19.4687 18.5933 19.6167 18.5385C19.9586 18.3827 20.2594 18.7671 19.9194 19.0145ZM14.1728 8.59711C14.1728 7.61393 14.2119 7.03497 13.8906 6.53818C13.6056 6.12923 13.1148 5.88367 12.4293 5.92239C11.686 5.96395 10.8879 6.4579 10.6848 7.36364C10.6448 7.57143 10.5255 7.77543 10.2778 7.81982L8.00989 7.52704C7.84783 7.48926 7.60102 7.36364 7.68205 7.03497C8.16916 4.43676 10.3588 3.53102 12.4302 3.40918H12.9164C14.0527 3.40918 15.5131 3.7388 16.4473 4.60298C17.5807 5.67589 17.4597 7.11714 17.4597 8.68306V12.392C17.4597 13.5045 17.9049 13.9975 18.3519 14.5774C18.473 14.7843 18.5149 15.028 18.3109 15.1961C17.7242 15.7266 17.129 16.2473 16.5255 16.7582C16.3625 16.8838 16.0701 16.897 15.9574 16.8007C15.2402 16.1915 15.0651 15.8534 14.6208 15.2348C13.8478 16.0574 13.1986 16.5117 12.4265 16.7582C11.8835 16.8979 11.3251 16.9665 10.7649 16.9622C8.81833 16.9622 7.2769 15.7316 7.2769 13.2977C7.2769 11.3625 8.2921 10.0469 9.79162 9.42446C11.2911 8.80112 13.4706 8.60278 14.1728 8.599M13.7286 13.5027C14.2129 12.6791 14.1728 12.0047 14.1728 10.4945C13.5656 10.4945 12.9565 10.537 12.4302 10.6627C11.4569 10.9488 10.6839 11.5693 10.6839 12.8869C10.6839 13.9163 11.2129 14.6171 12.1052 14.6171C12.2281 14.6171 12.3362 14.602 12.4293 14.5746C13.0533 14.3989 13.4426 14.0816 13.7286 13.5027Z" fill="black"/>
</g>
</svg>
