<svg width="25" height="25" viewBox="0 0 25 25" fill="none" xmlns="http://www.w3.org/2000/svg">
<g opacity="0.8">
<path opacity="0.7" d="M13.1192 6.04691C14.5376 6.02311 15.9082 6.55944 16.9337 7.53958L19.7953 4.67797C17.9894 2.98153 15.5968 2.05005 13.1192 2.07877C11.2693 2.078 9.45553 2.59178 7.88079 3.56266C6.30606 4.53355 5.03238 5.92328 4.20215 7.57649L7.5357 10.1607C7.91908 8.97712 8.66403 7.94356 9.66567 7.20558C10.6673 6.4676 11.8752 6.06235 13.1192 6.04691Z" fill="black"/>
<path d="M4.20188 7.57617C3.50435 8.96656 3.14111 10.5006 3.14111 12.0562C3.14111 13.6117 3.50435 15.1458 4.20188 16.5362L7.53544 13.9519C7.11827 12.7225 7.11827 11.3898 7.53544 10.1604L4.20188 7.57617Z" fill="black"/>
<path opacity="0.5" d="M16.4977 17.1131C15.7263 17.6083 14.8519 17.9207 13.9414 18.0266C13.0309 18.1325 12.1082 18.0291 11.2437 17.7242C10.3792 17.4193 9.5958 16.921 8.95318 16.2673C8.31057 15.6136 7.82574 14.8217 7.53568 13.9521L4.20312 16.5364C5.0332 18.1893 6.30657 19.5788 7.88092 20.5497C9.45527 21.5205 11.2686 22.0345 13.1182 22.0341C15.5471 22.0999 17.9093 21.235 19.7215 19.6165L16.4977 17.1131Z" fill="black"/>
<path opacity="0.25" d="M22.5162 10.2432H13.1191V14.1025H18.4892C18.378 14.713 18.1442 15.2946 17.8019 15.8122C17.4596 16.3298 17.0159 16.7726 16.4976 17.1138L19.7224 19.6182C20.7044 18.6725 21.4767 17.5309 21.9893 16.2675C22.5018 15.0042 22.7432 13.6472 22.6978 12.2846C22.6978 11.5991 22.6379 10.9167 22.5162 10.2432Z" fill="black"/>
</g>
</svg>
