<svg width="14" height="10" viewBox="0 0 14 10" fill="none" xmlns="http://www.w3.org/2000/svg">
<path d="M5.66513 6.81216L9.05465 4.9462L5.66513 3.08024V6.81216ZM13.2148 1.942C13.2997 2.23433 13.3585 2.62619 13.3977 3.12378C13.4434 3.62137 13.463 4.05054 13.463 4.42373L13.5022 4.9462C13.5022 6.30835 13.3977 7.30975 13.2148 7.9504C13.0515 8.51019 12.6728 8.87094 12.085 9.02644C11.778 9.1073 11.2164 9.16328 10.3543 9.2006C9.50528 9.24414 8.72811 9.2628 8.00971 9.2628L6.9713 9.30011C4.23487 9.30011 2.53031 9.2006 1.85763 9.02644C1.26985 8.87094 0.89106 8.51019 0.727788 7.9504C0.642887 7.65807 0.584109 7.26621 0.544924 6.76862C0.499208 6.27103 0.479615 5.84186 0.479615 5.46867L0.44043 4.9462C0.44043 3.58405 0.544924 2.58265 0.727788 1.942C0.89106 1.38221 1.26985 1.02146 1.85763 0.86596C2.16458 0.785101 2.72624 0.729122 3.58831 0.691803C4.43732 0.648264 5.2145 0.629604 5.93289 0.629604L6.9713 0.592285C9.70774 0.592285 11.4123 0.691803 12.085 0.86596C12.6728 1.02146 13.0515 1.38221 13.2148 1.942Z" fill="#00A4F4"/>
</svg>
